<?xml version="1.0" standalone="no"?>
<!DOCTYPE svg PUBLIC "-//W3C//DTD SVG 20010904//EN"
 "http://www.w3.org/TR/2001/REC-SVG-20010904/DTD/svg10.dtd">
<svg version="1.0" xmlns="http://www.w3.org/2000/svg"
 width="500.000000pt" height="500.000000pt" viewBox="0 0 500.000000 500.000000"
 preserveAspectRatio="xMidYMid meet">

<g transform="translate(0.000000,500.000000) scale(0.100000,-0.100000)"
fill="#000000" stroke="none">
<path d="M4278 4144 c-11 -10 8 -69 22 -69 24 0 25 52 2 64 -11 6 -22 8 -24 5z"/>
<path d="M4180 4089 c-52 -23 -110 -66 -110 -80 0 -5 21 6 47 26 25 19 63 40
85 47 21 6 38 15 38 20 0 12 -10 10 -60 -13z"/>
<path d="M3970 4083 c0 -5 4 -15 10 -23 11 -18 25 -7 17 15 -6 15 -27 21 -27
8z"/>
<path d="M3946 4033 c-6 -14 -5 -15 5 -6 7 7 10 15 7 18 -3 3 -9 -2 -12 -12z"/>
<path d="M4286 3933 c9 -36 12 -39 25 -26 16 16 7 47 -14 51 -15 3 -17 -1 -11
-25z"/>
<path d="M4137 3935 c-21 -7 -42 -17 -45 -21 -4 -4 1 -4 10 -1 53 19 105 28
130 23 18 -3 27 -2 23 4 -9 14 -73 12 -118 -5z"/>
<path d="M1240 3811 c0 -12 5 -21 10 -21 6 0 10 6 10 14 0 8 -4 18 -10 21 -5
3 -10 -3 -10 -14z"/>
<path d="M1348 3813 c7 -3 16 -2 19 1 4 3 -2 6 -13 5 -11 0 -14 -3 -6 -6z"/>
<path d="M1270 3721 c0 -6 5 -13 10 -16 6 -3 10 1 10 9 0 9 -4 16 -10 16 -5 0
-10 -4 -10 -9z"/>
<path d="M3912 2957 c-16 -70 -15 -102 4 -140 45 -88 97 -90 73 -3 -7 26 -6
42 2 58 12 22 11 22 -6 8 -17 -14 -18 -13 -13 32 4 35 2 45 -8 41 -9 -3 -11 2
-7 19 4 18 3 20 -6 8 -9 -12 -11 -11 -11 8 0 40 -15 23 -28 -31z"/>
<path d="M4549 2996 c-2 -2 -40 -9 -84 -15 -147 -21 -226 -79 -264 -194 -10
-32 -14 -54 -8 -48 5 5 22 8 36 5 20 -4 37 4 75 36 45 38 53 40 95 36 39 -5
41 -4 13 3 -48 12 -48 16 0 43 33 19 55 24 93 22 28 -1 39 0 25 2 -14 3 -32 8
-40 11 -8 3 -19 5 -24 4 -5 -1 -3 5 4 14 7 8 20 13 29 10 9 -2 23 0 31 6 12 8
9 9 -10 4 -22 -5 -20 -2 14 30 22 19 35 35 29 35 -5 0 -12 -2 -14 -4z"/>
<path d="M1130 2951 c0 -35 26 -110 48 -140 22 -29 74 -61 101 -61 24 0 20 35
-8 64 -23 24 -29 38 -25 56 5 20 4 22 -5 10 -10 -13 -13 -12 -26 4 -8 11 -16
34 -16 50 -1 24 -3 26 -6 9 -5 -28 -11 -29 -40 -1 -13 12 -23 16 -23 9z"/>
<path d="M859 2906 c27 -37 27 -49 -1 -41 -20 5 -21 4 -5 -5 9 -6 23 -8 30 -4
9 5 9 4 1 -5 -9 -10 -23 -9 -65 3 -29 9 -54 16 -56 16 -2 0 20 -27 49 -61 97
-110 183 -149 288 -129 66 12 74 19 61 52 -7 20 -23 29 -74 44 -54 15 -68 24
-81 49 l-16 30 6 -28 6 -28 -38 17 c-22 9 -46 17 -55 18 -10 0 -14 7 -12 17 3
10 -9 31 -27 50 -27 29 -29 29 -11 5z"/>
<path d="M1355 2670 c14 -15 15 -20 4 -20 -8 0 -10 -3 -4 -8 15 -11 17 -30 5
-55 -11 -21 -11 -21 4 -3 9 11 16 26 16 35 0 10 7 8 27 -10 15 -13 8 -1 -16
29 -24 28 -45 52 -48 52 -4 0 2 -9 12 -20z"/>
<path d="M4070 2661 c-19 -16 -38 -27 -42 -25 -3 2 -9 1 -12 -4 -3 -5 1 -9 8
-9 13 0 98 66 86 66 -3 0 -21 -13 -40 -28z"/>
<path d="M4229 2673 c-83 -35 -84 -80 -2 -67 35 5 48 3 66 -12 18 -16 20 -16
8 -1 -12 15 -10 17 21 17 19 0 40 -6 47 -12 11 -10 13 -10 7 0 -4 6 -2 12 4
12 6 0 8 5 5 10 -4 6 8 10 27 11 33 1 33 1 -17 24 -65 29 -124 36 -166 18z"/>
<path d="M1195 2560 c-21 -14 -39 -19 -60 -15 -27 5 -28 4 -11 -8 18 -13 18
-14 -10 -22 -16 -5 -38 -7 -49 -6 -16 3 -17 1 -6 -12 10 -13 9 -15 -11 -11
-13 2 -17 1 -10 -2 10 -5 9 -9 -5 -20 -16 -12 -9 -13 53 -14 82 0 124 21 157
79 17 27 18 34 6 42 -19 12 -20 12 -54 -11z"/>
<path d="M1320 2520 c-6 -11 -8 -20 -6 -20 3 0 10 9 16 20 6 11 8 20 6 20 -3
0 -10 -9 -16 -20z"/>
<path d="M1470 2509 c0 -12 11 -34 25 -51 18 -21 23 -37 19 -56 -5 -24 -4 -25
7 -8 11 18 12 18 25 -5 7 -13 13 -35 14 -48 0 -23 1 -24 13 -7 12 17 14 16 31
-9 10 -15 19 -25 22 -23 9 9 -19 125 -37 155 -11 17 -39 41 -63 52 -53 26 -56
26 -56 0z"/>
<path d="M4190 2500 c6 -11 13 -20 16 -20 2 0 0 9 -6 20 -6 11 -13 20 -16 20
-2 0 0 -9 6 -20z"/>
<path d="M4193 2457 c5 -15 37 -22 37 -9 0 5 -9 12 -21 15 -13 3 -19 1 -16 -6z"/>
<path d="M1254 2441 c-20 -10 -43 -37 -61 -71 -23 -42 -38 -58 -64 -66 l-34
-12 28 -3 28 -4 -26 -35 c-14 -19 -42 -43 -63 -52 -20 -10 -27 -15 -15 -12 41
10 44 -5 13 -66 l-30 -60 62 39 c152 94 202 169 196 291 -2 38 -3 69 -3 69 0
-1 -14 -9 -31 -18z"/>
<path d="M4015 2398 c-4 -24 -17 -62 -30 -85 -13 -24 -20 -43 -14 -43 14 0 47
72 54 123 4 26 5 47 2 47 -3 0 -8 -19 -12 -42z"/>
<path d="M4118 2370 c8 -57 8 -87 0 -127 -4 -18 -4 -33 1 -33 24 0 28 128 6
175 -14 30 -14 29 -7 -15z"/>
<path d="M1407 2236 c-8 -8 -20 -28 -27 -45 -7 -17 -20 -31 -29 -32 -10 0 -11
-2 -4 -6 16 -6 -6 -41 -39 -61 -13 -7 -15 -11 -6 -8 19 5 18 -17 -2 -54 l-12
-22 32 18 c89 53 137 128 123 195 -6 32 -15 36 -36 15z"/>
<path d="M3920 2236 c0 -19 21 -26 44 -14 15 8 16 12 5 19 -22 13 -49 11 -49
-5z"/>
<path d="M4070 2167 c0 -22 26 -39 50 -32 22 7 28 35 8 35 -7 0 -23 3 -35 6
-16 5 -23 2 -23 -9z"/>
<path d="M3098 1873 c7 -3 16 -2 19 1 4 3 -2 6 -13 5 -11 0 -14 -3 -6 -6z"/>
<path d="M3058 1863 c7 -3 16 -2 19 1 4 3 -2 6 -13 5 -11 0 -14 -3 -6 -6z"/>
<path d="M2998 1853 c6 -2 18 -2 25 0 6 3 1 5 -13 5 -14 0 -19 -2 -12 -5z"/>
<path d="M2928 1843 c6 -2 18 -2 25 0 6 3 1 5 -13 5 -14 0 -19 -2 -12 -5z"/>
</g>
</svg>
