<?xml version="1.0" encoding="UTF-8"?>
<!-- Generator: visioncortex VTracer 0.6.3 -->
<svg version="1.1" xmlns="http://www.w3.org/2000/svg" width="1280" height="1280">
<path d="M0 0 C422.4 0 844.8 0 1280 0 C1280 422.4 1280 844.8 1280 1280 C857.6 1280 435.2 1280 0 1280 C0 857.6 0 435.2 0 0 Z " fill="#000000" transform="translate(0,0)"/>
<path d="M0 0 C0.72 -0 1.44 -0.01 2.19 -0.01 C4.63 -0.02 7.07 -0.02 9.5 -0.02 C11.24 -0.03 12.98 -0.03 14.73 -0.04 C19.47 -0.05 24.21 -0.06 28.95 -0.06 C31.91 -0.06 34.87 -0.07 37.83 -0.07 C47.07 -0.08 56.32 -0.09 65.57 -0.1 C76.26 -0.1 86.95 -0.12 97.65 -0.15 C105.9 -0.17 114.15 -0.18 122.41 -0.18 C127.34 -0.18 132.28 -0.19 137.21 -0.21 C141.85 -0.22 146.49 -0.23 151.13 -0.22 C152.84 -0.22 154.55 -0.22 156.25 -0.23 C158.58 -0.24 160.9 -0.24 163.22 -0.23 C164.52 -0.23 165.82 -0.23 167.17 -0.23 C168.16 -0.11 169.15 0.01 170.17 0.14 C172.17 3.14 172.17 3.14 172.17 6.14 C171.48 6.16 170.8 6.18 170.08 6.2 C144.32 5.89 144.32 5.89 121.17 15.45 C116.35 21.93 116.54 29.4 117.17 37.14 C117.64 39.72 118.15 42.23 118.76 44.77 C118.93 45.51 119.1 46.24 119.28 46.99 C121.39 55.48 124.3 63.68 127.26 71.91 C128.96 76.65 130.63 81.39 132.3 86.14 C132.64 87.09 132.97 88.03 133.32 89.01 C136.21 97.19 138.96 105.4 141.67 113.64 C146.09 127.04 150.71 140.36 155.38 153.68 C160.91 169.47 166.34 185.29 171.72 201.13 C175.07 211 178.45 220.85 181.85 230.7 C187.78 247.87 193.66 265.06 199.49 282.27 C199.76 283.07 200.03 283.88 200.31 284.7 C211.55 317.9 222.38 351.2 231.17 385.14 C231.83 385.14 232.49 385.14 233.17 385.14 C233.53 383.99 233.53 383.99 233.89 382.82 C245.05 346.71 256.27 310.63 267.8 274.64 C268.03 273.9 268.27 273.16 268.51 272.4 C270.66 265.71 272.8 259.02 274.95 252.33 C279.81 237.18 284.63 222.02 289.45 206.86 C291.4 200.7 293.36 194.54 295.32 188.38 C295.53 187.72 295.74 187.07 295.95 186.39 C299.71 174.57 303.49 162.76 307.28 150.94 C313.4 131.84 319.5 112.74 325.58 93.63 C326.46 90.84 327.35 88.05 328.24 85.26 C329.49 81.35 330.73 77.44 331.97 73.53 C332.34 72.38 332.7 71.24 333.08 70.06 C341.81 46.37 341.81 46.37 339.8 22.08 C338.99 20.62 338.99 20.62 338.17 19.14 C337.86 18.21 337.55 17.28 337.24 16.33 C335.51 12.77 331.89 11.93 328.3 10.64 C314.72 6.37 300.38 6.73 286.3 6.52 C284.24 6.48 282.19 6.44 280.13 6.4 C275.15 6.3 270.16 6.22 265.17 6.14 C264.55 4.27 264.55 4.27 264.17 2.14 C264.83 1.48 265.49 0.82 266.17 0.14 C266.5 0.47 266.83 0.8 267.17 1.14 C269.5 1.51 271.84 1.84 274.17 2.14 C274.17 1.48 274.17 0.82 274.17 0.14 C292.28 0.12 310.39 0.1 328.49 0.09 C336.9 0.08 345.3 0.08 353.71 0.07 C361.04 0.06 368.36 0.05 375.68 0.05 C379.56 0.05 383.45 0.04 387.33 0.03 C390.97 0.03 394.62 0.03 398.27 0.03 C400.26 0.03 402.24 0.02 404.23 0.02 C405.4 0.02 406.57 0.02 407.78 0.02 C408.8 0.02 409.82 0.02 410.88 0.02 C413.17 0.14 413.17 0.14 414.17 1.14 C414.21 2.81 414.22 4.47 414.17 6.14 C413.27 6.17 413.27 6.17 412.34 6.2 C386.27 6.32 386.27 6.32 363.84 18.15 C345.78 39.72 340.19 74.47 331.89 100.73 C329.77 107.41 327.64 114.09 325.49 120.77 C325.12 121.92 324.74 123.07 324.36 124.25 C321.48 133.16 318.56 142.05 315.64 150.95 C315.23 152.21 314.81 153.48 314.39 154.75 C314.18 155.39 313.97 156.03 313.76 156.69 C312.67 160.01 311.58 163.32 310.49 166.64 C310.27 167.31 310.05 167.97 309.82 168.66 C304.08 186.15 298.37 203.66 292.8 221.2 C287.01 239.43 281.15 257.64 275.25 275.84 C274.55 278.01 273.85 280.17 273.15 282.33 C268.58 296.45 264.01 310.56 259.44 324.67 C257.48 330.69 255.53 336.71 253.58 342.73 C252.21 346.98 250.83 351.23 249.45 355.48 C248.39 358.73 247.34 361.99 246.29 365.24 C245.91 366.39 245.54 367.54 245.15 368.72 C244.8 369.8 244.45 370.89 244.09 372 C243.64 373.39 243.64 373.39 243.18 374.81 C241.74 379.56 240.48 384.35 239.17 389.14 C323.65 389.47 408.13 389.8 495.17 390.14 C494.84 327.11 494.51 264.08 494.17 199.14 C435.19 195.27 435.19 195.27 378.61 218.41 C360.96 239.66 359.12 267.01 356.91 293.33 C356.82 294.31 356.74 295.29 356.65 296.3 C356.58 297.17 356.52 298.03 356.44 298.92 C356.17 301.14 356.17 301.14 355.17 304.14 C353.51 304.18 351.84 304.18 350.17 304.14 C349.17 303.14 349.17 303.14 349.12 300.79 C349.15 299.73 349.19 298.67 349.22 297.57 C349.28 295.71 349.28 295.71 349.34 293.81 C349.39 292.4 349.44 290.99 349.49 289.58 C349.53 288.1 349.58 286.63 349.63 285.15 C349.77 280.83 349.92 276.51 350.07 272.18 C350.18 268.9 350.29 265.61 350.41 262.33 C350.66 254.93 350.91 247.54 351.17 240.14 C351.22 238.94 351.26 237.74 351.3 236.5 C351.57 228.71 351.86 220.93 352.17 213.14 C352.21 212.19 352.25 211.25 352.28 210.27 C352.38 207.73 352.49 205.18 352.61 202.64 C352.64 201.91 352.67 201.18 352.69 200.43 C352.88 196.83 353.12 195.21 355.17 192.14 C357.7 191.77 357.7 191.77 360.96 191.77 C362.82 191.76 362.82 191.76 364.72 191.75 C366.11 191.76 367.5 191.76 368.88 191.77 C370.35 191.77 371.82 191.77 373.28 191.76 C377.32 191.75 381.36 191.76 385.4 191.78 C389.76 191.79 394.11 191.78 398.46 191.78 C406.99 191.77 415.52 191.78 424.06 191.8 C433.98 191.82 443.91 191.82 453.83 191.82 C471.54 191.82 489.24 191.84 506.94 191.86 C524.14 191.88 541.34 191.9 558.54 191.9 C559.59 191.9 560.65 191.9 561.75 191.9 C563.88 191.9 566.01 191.9 568.15 191.9 C569.2 191.9 570.25 191.9 571.34 191.9 C572.39 191.9 573.44 191.9 574.52 191.9 C590.88 191.91 607.24 191.92 623.6 191.93 C629.54 191.94 635.48 191.94 641.43 191.94 C650.85 191.95 660.27 191.95 669.69 191.97 C674 191.98 678.31 191.98 682.61 191.98 C686.55 191.98 690.49 191.99 694.42 192 C695.85 192 697.29 192 698.72 192 C700.65 192 702.58 192 704.51 192.01 C705.59 192.01 706.67 192.01 707.78 192.01 C710.17 192.14 710.17 192.14 711.17 193.14 C712.13 200.06 712.44 206.95 712.67 213.93 C712.71 215.05 712.75 216.17 712.8 217.33 C712.93 220.95 713.05 224.58 713.17 228.2 C713.26 230.7 713.35 233.2 713.44 235.69 C713.65 241.76 713.86 247.83 714.06 253.9 C714.16 256.8 714.26 259.7 714.36 262.6 C714.51 266.95 714.66 271.3 714.8 275.64 C714.84 276.83 714.88 278.01 714.92 279.23 C715.18 287.54 715.21 295.83 715.17 304.14 C713.52 304.14 711.87 304.14 710.17 304.14 C708.66 300.05 707.89 296.49 707.68 292.13 C707.62 290.99 707.56 289.85 707.49 288.67 C707.4 286.86 707.4 286.86 707.3 285.02 C706.32 269.38 704.62 253.6 698.17 239.14 C697.74 238.16 697.31 237.18 696.87 236.17 C690.13 221.75 680.87 211.7 665.82 206.21 C634.52 195.62 600.5 199.14 568.17 199.14 C568.17 261.84 568.17 324.54 568.17 389.14 C594.35 389.19 620.54 389.24 647.51 389.29 C664.04 389.32 680.58 389.36 697.11 389.4 C705.79 389.42 714.47 389.44 723.15 389.46 C724.79 389.46 724.79 389.46 726.45 389.47 C744.04 389.51 761.63 389.54 779.21 389.57 C797.25 389.6 815.29 389.64 833.33 389.68 C844.46 389.71 855.6 389.73 866.74 389.75 C874.37 389.76 882 389.78 889.63 389.8 C894.03 389.81 898.44 389.82 902.85 389.82 C906.88 389.83 910.91 389.84 914.94 389.85 C916.4 389.86 917.86 389.86 919.32 389.86 C921.3 389.86 923.28 389.87 925.26 389.88 C926.36 389.88 927.46 389.88 928.6 389.89 C931.17 390.14 931.17 390.14 933.17 392.14 C933.42 394.3 933.42 394.3 933.42 397.04 C933.43 398.08 933.43 399.12 933.43 400.18 C933.43 401.9 933.43 401.9 933.42 403.64 C933.42 405.44 933.42 405.44 933.42 407.27 C933.43 410.57 933.42 413.86 933.41 417.15 C933.4 420.59 933.4 424.03 933.4 427.46 C933.4 433.24 933.39 439.01 933.38 444.79 C933.36 451.47 933.36 458.16 933.36 464.84 C933.36 471.26 933.35 477.68 933.35 484.11 C933.34 486.84 933.34 489.58 933.34 492.32 C933.34 496.13 933.33 499.95 933.32 503.77 C933.32 504.91 933.32 506.05 933.32 507.23 C933.32 508.27 933.31 509.3 933.31 510.36 C933.31 511.27 933.3 512.17 933.3 513.1 C933.17 515.14 933.17 515.14 932.17 516.14 C930.24 516.24 928.3 516.27 926.37 516.28 C925.1 516.28 923.83 516.29 922.52 516.3 C921.09 516.3 919.66 516.3 918.23 516.3 C916.73 516.3 915.23 516.31 913.73 516.31 C909.58 516.33 905.43 516.33 901.28 516.34 C896.82 516.35 892.35 516.36 887.89 516.38 C880.14 516.4 872.4 516.42 864.66 516.43 C853.46 516.45 842.26 516.48 831.07 516.51 C812.91 516.56 794.74 516.6 776.58 516.64 C758.93 516.68 741.28 516.72 723.64 516.77 C722.01 516.77 722.01 516.77 720.34 516.78 C714.89 516.79 709.44 516.8 703.98 516.82 C658.71 516.93 613.44 517.04 568.17 517.14 C568.21 527.03 568.27 536.93 568.36 546.82 C568.4 551.42 568.43 556.01 568.44 560.61 C568.46 565.06 568.49 569.5 568.54 573.95 C568.56 575.64 568.56 577.32 568.57 579 C568.58 592.2 568.97 606.17 577.17 617.14 C579.32 619.16 579.32 619.16 581.74 620.77 C582.5 621.31 583.26 621.86 584.05 622.43 C593.37 627.53 601.82 628.77 612.36 628.89 C613.6 628.92 614.84 628.95 616.11 628.98 C619.13 629.05 622.15 629.1 625.17 629.14 C625.17 630.46 625.17 631.78 625.17 633.14 C625.83 633.8 626.49 634.46 627.17 635.14 C625.48 636.83 623.39 636.27 621.13 636.28 C620.41 636.28 619.68 636.28 618.93 636.28 C617.78 636.29 617.78 636.29 616.6 636.29 C614.01 636.3 611.42 636.3 608.83 636.3 C606.98 636.31 605.14 636.31 603.29 636.32 C598.25 636.33 593.21 636.34 588.18 636.34 C585.03 636.34 581.89 636.35 578.75 636.35 C568.92 636.37 559.1 636.38 549.28 636.38 C537.92 636.38 526.56 636.4 515.2 636.43 C506.43 636.45 497.67 636.46 488.9 636.46 C483.66 636.46 478.41 636.47 473.17 636.49 C468.24 636.5 463.31 636.51 458.38 636.5 C456.57 636.5 454.76 636.5 452.95 636.51 C450.48 636.52 448.01 636.52 445.54 636.51 C444.82 636.52 444.09 636.52 443.35 636.53 C441.35 636.51 441.35 636.51 438.17 636.14 C437.51 635.15 436.85 634.16 436.17 633.14 C436.5 632.15 436.83 631.16 437.17 630.14 C438.37 630.07 438.37 630.07 439.59 630 C443.24 629.79 446.89 629.56 450.55 629.33 C451.8 629.26 453.05 629.19 454.34 629.12 C467.44 628.26 478.03 625.63 487.49 616.08 C495.45 605.6 494.72 592.38 494.56 579.93 C494.56 578.11 494.55 576.29 494.55 574.47 C494.53 569.73 494.49 564.98 494.45 560.24 C494.41 555.38 494.39 550.51 494.37 545.65 C494.33 536.15 494.26 526.64 494.17 517.14 C493.62 517.14 493.06 517.14 492.49 517.14 C431.97 517.08 371.45 517.02 310.93 516.94 C310.02 516.94 309.12 516.94 308.19 516.94 C288.56 516.91 268.93 516.89 249.3 516.86 C239.67 516.85 230.04 516.84 220.42 516.82 C219.46 516.82 218.5 516.82 217.52 516.82 C186.44 516.78 155.36 516.75 124.29 516.72 C92.37 516.68 60.45 516.65 28.52 516.6 C24.02 516.6 19.52 516.59 15.01 516.58 C14.13 516.58 13.24 516.58 12.33 516.58 C-1.97 516.56 -16.27 516.55 -30.56 516.54 C-44.92 516.52 -59.28 516.51 -73.63 516.48 C-82.17 516.47 -90.71 516.46 -99.25 516.46 C-104.95 516.45 -110.64 516.45 -116.34 516.43 C-119.59 516.42 -122.84 516.42 -126.09 516.42 C-129.59 516.42 -133.08 516.42 -136.57 516.4 C-137.59 516.41 -138.62 516.41 -139.67 516.41 C-140.59 516.41 -141.52 516.4 -142.47 516.4 C-143.27 516.39 -144.07 516.39 -144.89 516.39 C-146.83 516.14 -146.83 516.14 -148.83 514.14 C-149.08 511.99 -149.08 511.99 -149.07 509.28 C-149.08 508.26 -149.08 507.23 -149.09 506.17 C-149.08 505.04 -149.08 503.91 -149.07 502.75 C-149.07 501.56 -149.07 500.37 -149.08 499.15 C-149.08 495.89 -149.07 492.63 -149.06 489.37 C-149.05 485.96 -149.06 482.55 -149.06 479.15 C-149.05 473.42 -149.05 467.7 -149.03 461.98 C-149.02 455.35 -149.01 448.73 -149.01 442.11 C-149.01 435.75 -149.01 429.38 -149 423.02 C-149 420.31 -148.99 417.6 -148.99 414.88 C-148.99 411.1 -148.98 407.32 -148.97 403.53 C-148.97 402.4 -148.97 401.27 -148.97 400.11 C-148.97 399.08 -148.96 398.06 -148.96 397 C-148.96 396.1 -148.96 395.21 -148.96 394.29 C-148.83 392.14 -148.83 392.14 -147.83 390.14 C6.61 389.65 6.61 389.65 164.17 389.14 C159.55 376.27 154.93 363.4 150.17 350.14 C146.29 338.58 146.29 338.58 144.72 333.81 C142.1 325.83 139.23 317.93 136.41 310.02 C129.81 291.51 123.33 272.97 116.92 254.39 C111.22 237.84 105.43 221.32 99.41 204.88 C96.63 197.28 93.98 189.64 91.44 181.96 C88.74 173.8 85.9 165.69 83.05 157.58 C82.45 155.88 81.86 154.18 81.26 152.48 C79.95 148.75 78.64 145.02 77.33 141.29 C75 134.64 72.67 127.99 70.34 121.34 C66.1 109.23 61.85 97.13 57.59 85.03 C56.03 80.58 54.47 76.14 52.91 71.69 C51.2 66.79 49.47 61.9 47.75 57.01 C47.13 55.25 46.51 53.49 45.89 51.73 C38.25 27.85 38.25 27.85 20.89 11.13 C12.09 7.92 2.49 6.78 -6.83 6.14 C-7.21 4.48 -7.54 2.82 -7.83 1.14 C-5.92 -0.76 -2.52 0.01 0 0 Z " fill="#F2F2F2" transform="translate(262.82640075683594,294.85955810546875)"/>
<path d="M0 0 C0.72 -0 1.44 -0.01 2.19 -0.01 C4.63 -0.02 7.07 -0.02 9.5 -0.02 C11.24 -0.03 12.98 -0.03 14.73 -0.04 C19.47 -0.05 24.21 -0.06 28.95 -0.06 C31.91 -0.06 34.87 -0.07 37.83 -0.07 C47.07 -0.08 56.32 -0.09 65.57 -0.1 C76.26 -0.1 86.95 -0.12 97.65 -0.15 C105.9 -0.17 114.15 -0.18 122.41 -0.18 C127.34 -0.18 132.28 -0.19 137.21 -0.21 C141.85 -0.22 146.49 -0.23 151.13 -0.22 C152.84 -0.22 154.55 -0.22 156.25 -0.23 C158.58 -0.24 160.9 -0.24 163.22 -0.23 C164.52 -0.23 165.82 -0.23 167.17 -0.23 C168.16 -0.11 169.15 0.01 170.17 0.14 C172.17 3.14 172.17 3.14 172.17 6.14 C171.48 6.16 170.8 6.18 170.08 6.2 C144.32 5.89 144.32 5.89 121.17 15.45 C116.35 21.93 116.54 29.4 117.17 37.14 C117.64 39.72 118.15 42.23 118.76 44.77 C119.02 45.87 119.02 45.87 119.28 46.99 C121.39 55.48 124.3 63.68 127.26 71.91 C128.96 76.65 130.63 81.39 132.3 86.14 C132.64 87.09 132.97 88.03 133.32 89.01 C136.21 97.19 138.96 105.4 141.67 113.64 C146.09 127.04 150.71 140.36 155.38 153.68 C160.91 169.47 166.34 185.29 171.72 201.13 C175.07 211 178.45 220.85 181.85 230.7 C187.78 247.87 193.66 265.06 199.49 282.27 C199.76 283.07 200.03 283.88 200.31 284.7 C211.55 317.9 222.38 351.2 231.17 385.14 C231.83 385.14 232.49 385.14 233.17 385.14 C233.53 383.99 233.53 383.99 233.89 382.82 C245.05 346.71 256.27 310.63 267.8 274.64 C268.03 273.9 268.27 273.16 268.51 272.4 C270.66 265.71 272.8 259.02 274.95 252.33 C279.81 237.18 284.63 222.02 289.45 206.86 C291.4 200.7 293.36 194.54 295.32 188.38 C295.53 187.72 295.74 187.07 295.95 186.39 C299.71 174.57 303.49 162.76 307.28 150.94 C313.4 131.84 319.5 112.74 325.58 93.63 C326.46 90.84 327.35 88.05 328.24 85.26 C329.49 81.35 330.73 77.44 331.97 73.53 C332.34 72.38 332.7 71.24 333.08 70.06 C341.81 46.37 341.81 46.37 339.8 22.08 C338.99 20.62 338.99 20.62 338.17 19.14 C337.86 18.21 337.55 17.28 337.24 16.33 C335.51 12.77 331.89 11.93 328.3 10.64 C314.72 6.37 300.38 6.73 286.3 6.52 C284.24 6.48 282.19 6.44 280.13 6.4 C275.15 6.3 270.16 6.22 265.17 6.14 C264.55 4.27 264.55 4.27 264.17 2.14 C264.83 1.48 265.49 0.82 266.17 0.14 C266.5 0.47 266.83 0.8 267.17 1.14 C269.5 1.51 271.84 1.84 274.17 2.14 C274.17 1.48 274.17 0.82 274.17 0.14 C292.28 0.12 310.39 0.1 328.49 0.09 C336.9 0.08 345.3 0.08 353.71 0.07 C361.04 0.06 368.36 0.05 375.68 0.05 C379.56 0.05 383.45 0.04 387.33 0.03 C390.97 0.03 394.62 0.03 398.27 0.03 C400.26 0.03 402.24 0.02 404.23 0.02 C405.4 0.02 406.57 0.02 407.78 0.02 C409.31 0.02 409.31 0.02 410.88 0.02 C413.17 0.14 413.17 0.14 414.17 1.14 C414.21 2.81 414.22 4.47 414.17 6.14 C413.27 6.17 413.27 6.17 412.34 6.2 C386.27 6.32 386.27 6.32 363.84 18.15 C345.78 39.72 340.19 74.47 331.89 100.73 C329.77 107.41 327.64 114.09 325.49 120.77 C325.12 121.92 324.74 123.07 324.36 124.25 C321.48 133.16 318.56 142.05 315.64 150.95 C315.23 152.21 314.81 153.48 314.39 154.75 C314.18 155.39 313.97 156.03 313.76 156.69 C312.67 160.01 311.58 163.32 310.49 166.64 C310.27 167.31 310.05 167.97 309.82 168.66 C304.08 186.15 298.37 203.66 292.8 221.2 C286.78 240.16 280.68 259.09 274.55 278.02 C274.2 279.09 274.2 279.09 273.85 280.18 C271.97 285.98 270.09 291.78 268.21 297.58 C264.55 308.89 260.89 320.21 257.24 331.52 C256.75 333.03 256.27 334.53 255.78 336.03 C253.7 342.49 251.61 348.95 249.53 355.4 C248.89 357.4 248.24 359.39 247.6 361.38 C246.82 363.79 246.04 366.2 245.27 368.61 C244.74 370.23 244.74 370.23 244.21 371.89 C243.91 372.81 243.61 373.74 243.3 374.69 C241.62 379.85 239.89 384.99 238.17 390.14 C214.41 390.47 190.65 390.8 166.17 391.14 C166.17 390.48 166.17 389.82 166.17 389.14 C165.51 389.14 164.85 389.14 164.17 389.14 C162.3 383.97 160.44 378.8 158.58 373.63 C157.95 371.88 157.32 370.13 156.68 368.39 C152.93 358 149.29 347.58 145.83 337.09 C142.82 328.02 139.62 319.02 136.41 310.02 C129.81 291.51 123.33 272.97 116.92 254.39 C111.22 237.84 105.43 221.32 99.41 204.88 C96.63 197.28 93.98 189.64 91.44 181.96 C88.74 173.8 85.9 165.69 83.05 157.58 C82.45 155.88 81.86 154.18 81.26 152.48 C79.95 148.75 78.64 145.02 77.33 141.29 C75 134.64 72.67 127.99 70.34 121.34 C66.1 109.23 61.85 97.13 57.59 85.03 C56.03 80.58 54.47 76.14 52.91 71.69 C51.2 66.79 49.47 61.9 47.75 57.01 C47.13 55.25 46.51 53.49 45.89 51.73 C38.25 27.85 38.25 27.85 20.89 11.13 C12.09 7.92 2.49 6.78 -6.83 6.14 C-7.21 4.48 -7.54 2.82 -7.83 1.14 C-5.92 -0.76 -2.52 0.01 0 0 Z " fill="#E2923E" transform="translate(262.82640075683594,294.85955810546875)"/>
<path d="M0 0 C2.52 -0.37 2.52 -0.37 5.79 -0.37 C7.03 -0.38 8.27 -0.39 9.54 -0.39 C10.93 -0.38 12.32 -0.38 13.71 -0.37 C15.18 -0.37 16.64 -0.37 18.11 -0.38 C22.15 -0.39 26.19 -0.38 30.23 -0.36 C34.58 -0.35 38.94 -0.36 43.29 -0.36 C51.82 -0.37 60.35 -0.36 68.88 -0.34 C78.81 -0.32 88.73 -0.32 98.66 -0.32 C116.36 -0.32 134.07 -0.31 151.77 -0.28 C168.97 -0.26 186.16 -0.24 203.36 -0.24 C204.42 -0.24 205.48 -0.24 206.57 -0.24 C208.71 -0.24 210.84 -0.24 212.97 -0.24 C214.55 -0.24 214.55 -0.24 216.16 -0.24 C217.21 -0.24 218.26 -0.24 219.34 -0.24 C235.71 -0.23 252.07 -0.22 268.43 -0.21 C274.37 -0.2 280.31 -0.2 286.25 -0.2 C295.67 -0.19 305.09 -0.19 314.52 -0.17 C318.82 -0.17 323.13 -0.16 327.44 -0.16 C331.38 -0.16 335.31 -0.15 339.25 -0.14 C340.68 -0.14 342.11 -0.14 343.54 -0.14 C345.47 -0.14 347.41 -0.14 349.34 -0.13 C350.42 -0.13 351.49 -0.13 352.6 -0.13 C355 0 355 0 356 1 C356.96 7.92 357.27 14.81 357.5 21.79 C357.54 22.91 357.58 24.03 357.62 25.19 C357.75 28.81 357.88 32.44 358 36.06 C358.09 38.56 358.18 41.05 358.26 43.55 C358.48 49.62 358.68 55.69 358.89 61.76 C358.99 64.66 359.09 67.56 359.19 70.46 C359.34 74.81 359.48 79.15 359.62 83.5 C359.66 84.69 359.7 85.87 359.75 87.09 C360.01 95.4 360.04 103.69 360 112 C358.35 112 356.7 112 355 112 C353.49 107.91 352.71 104.34 352.51 99.99 C352.44 98.85 352.38 97.71 352.32 96.53 C352.25 95.32 352.19 94.12 352.12 92.88 C351.15 77.24 349.45 61.46 343 47 C342.57 46.02 342.14 45.04 341.7 44.03 C334.95 29.61 325.7 19.56 310.65 14.07 C279.35 3.48 245.33 7 213 7 C213.33 70.03 213.66 133.06 214 198 C189.91 198 165.82 198 141 198 C139.05 196.05 139.85 192.32 139.84 189.67 C139.84 188.89 139.83 188.11 139.83 187.31 C139.81 184.69 139.8 182.07 139.79 179.45 C139.79 177.57 139.78 175.7 139.76 173.83 C139.74 168.73 139.72 163.63 139.7 158.53 C139.67 153.21 139.65 147.89 139.62 142.56 C139.57 132.48 139.53 122.39 139.48 112.31 C139.43 100.83 139.38 89.35 139.32 77.87 C139.21 54.24 139.1 30.62 139 7 C131.61 6.92 124.21 6.87 116.82 6.84 C114.32 6.82 111.81 6.8 109.31 6.77 C63.4 6.1 63.4 6.1 23.44 26.27 C5.79 47.52 3.94 74.87 1.73 101.19 C1.61 102.66 1.61 102.66 1.48 104.16 C1.41 105.03 1.34 105.89 1.27 106.78 C1 109 1 109 0 112 C-1.67 112.04 -3.33 112.04 -5 112 C-6 111 -6 111 -6.05 108.65 C-6.02 107.59 -5.98 106.53 -5.95 105.43 C-5.91 104.19 -5.87 102.95 -5.83 101.67 C-5.79 100.26 -5.74 98.85 -5.69 97.44 C-5.64 95.96 -5.59 94.49 -5.54 93.01 C-5.4 88.69 -5.26 84.36 -5.11 80.04 C-4.99 76.76 -4.88 73.47 -4.77 70.19 C-4.52 62.79 -4.26 55.4 -4 48 C-3.96 46.8 -3.92 45.6 -3.87 44.36 C-3.6 36.57 -3.31 28.78 -3 21 C-2.96 20.05 -2.93 19.11 -2.89 18.13 C-2.79 15.59 -2.68 13.04 -2.56 10.5 C-2.54 9.77 -2.51 9.04 -2.48 8.29 C-2.3 4.69 -2.05 3.07 0 0 Z " fill="#E2923E" transform="translate(618,487)"/>
<path d="M0 0 C0.68 -0 1.37 -0 2.07 -0 C4.33 0 6.58 0.01 8.84 0.02 C10.4 0.02 11.97 0.02 13.53 0.02 C17.65 0.02 21.77 0.03 25.89 0.04 C30.09 0.06 34.29 0.06 38.5 0.06 C46.74 0.08 54.99 0.09 63.23 0.11 C64.7 3.05 64.38 6.02 64.38 9.25 C64.38 9.98 64.38 10.72 64.39 11.48 C64.39 13.08 64.4 14.68 64.4 16.28 C64.41 18.83 64.43 21.38 64.44 23.93 C64.5 31.18 64.54 38.44 64.56 45.69 C64.57 50.13 64.6 54.57 64.64 59 C64.65 60.68 64.66 62.36 64.66 64.04 C64.64 77.22 65.03 91.15 73.23 102.11 C75.38 104.13 75.38 104.13 77.8 105.74 C78.56 106.29 79.32 106.84 80.11 107.4 C89.43 112.51 97.88 113.74 108.42 113.86 C109.66 113.89 110.9 113.92 112.17 113.95 C115.19 114.02 118.21 114.08 121.23 114.11 C121.23 115.43 121.23 116.75 121.23 118.11 C121.89 118.77 122.55 119.43 123.23 120.11 C121.54 121.8 119.45 121.24 117.19 121.26 C116.47 121.26 115.74 121.25 114.99 121.25 C113.84 121.26 113.84 121.26 112.66 121.26 C110.07 121.27 107.48 121.27 104.89 121.27 C103.04 121.28 101.2 121.28 99.35 121.29 C94.31 121.3 89.27 121.31 84.24 121.31 C81.09 121.32 77.95 121.32 74.81 121.33 C64.98 121.34 55.16 121.35 45.34 121.35 C33.98 121.36 22.62 121.37 11.26 121.4 C2.49 121.42 -6.27 121.44 -15.04 121.44 C-20.28 121.44 -25.53 121.44 -30.77 121.46 C-35.7 121.48 -40.63 121.48 -45.55 121.47 C-47.37 121.47 -49.18 121.47 -50.99 121.48 C-53.46 121.5 -55.93 121.49 -58.4 121.48 C-59.12 121.49 -59.85 121.5 -60.59 121.51 C-62.59 121.49 -62.59 121.49 -65.77 121.11 C-66.43 120.12 -67.09 119.13 -67.77 118.11 C-67.44 117.12 -67.11 116.13 -66.77 115.11 C-65.97 115.07 -65.17 115.02 -64.35 114.98 C-60.7 114.76 -57.05 114.53 -53.39 114.3 C-52.14 114.23 -50.89 114.16 -49.6 114.09 C-36.5 113.23 -25.91 110.61 -16.45 101.05 C-8.45 90.51 -9.22 77.2 -9.38 64.69 C-9.38 62.85 -9.39 61 -9.39 59.16 C-9.41 54.36 -9.45 49.55 -9.49 44.75 C-9.53 39.82 -9.55 34.9 -9.57 29.98 C-9.61 20.36 -9.68 10.74 -9.77 1.11 C-6.31 -0.04 -3.65 -0.01 0 0 Z " fill="#E2923E" transform="translate(766.766357421875,809.886474609375)"/>
<path d="M0 0 C2.81 4.22 1.95 7.17 1 12 C0.13 15.05 -0.88 18.03 -2 21 C-1.38 21.12 -0.76 21.25 -0.12 21.38 C2 22 2 22 4 24 C3.44 28.56 3.44 28.56 2 30 C0.49 30.23 -1.04 30.41 -2.56 30.56 C-3.8 30.69 -3.8 30.69 -5.07 30.82 C-5.7 30.88 -6.34 30.94 -7 31 C-7.23 32.18 -7.45 33.35 -7.69 34.56 C-9.22 41.54 -11.67 48.25 -14 55 C-10.97 56.66 -10.97 56.66 -7.56 56.94 C-3.62 55.49 -0.93 52.96 0.88 49.13 C1.65 47 2.34 44.85 3 42.69 C7.56 28.87 7.56 28.87 13.25 24.12 C18.62 21.93 23.09 20.66 28.88 21.69 C31.79 22.91 33.16 23.52 35 26 C35.56 26.72 36.11 27.44 36.69 28.19 C38.67 32.45 38.85 36.56 37.32 40.96 C36.57 42.65 35.79 44.33 35 46 C35 46.99 35 47.98 35 49 C38.29 48.73 39.7 48.3 42.06 45.94 C43.02 44.48 43.02 44.48 44 43 C44.39 42.43 44.77 41.86 45.17 41.28 C48.28 36.1 47.97 32.43 47.19 26.56 C46.92 22.87 47.72 20.87 50 18 C53.19 16.62 53.19 16.62 56 16 C60.82 20.57 60.82 20.57 61.88 23.12 C62.98 25.38 62.98 25.38 66.38 26.38 C70.74 28.33 72 29.68 74 34 C75.49 41.61 72.46 48.9 70 56 C71.32 56 72.64 56 74 56 C76.93 53 78.75 50.5 80.62 46.75 C82 44 82 44 85 42 C87 42.06 87 42.06 89 43 C90.75 45.56 90.75 45.56 92 48 C91.34 48 90.68 48 90 48 C89.81 48.8 89.63 49.61 89.44 50.44 C86.95 56.6 82.67 62.41 77 66 C72.11 67.53 68.1 67.4 63.5 65.12 C60.32 63.32 60.32 63.32 59 62 C58.55 55.86 58.94 50.8 61 45 C61.17 42.31 61.09 39.7 61 37 C59.68 37 58.36 37 57 37 C56.82 37.75 56.64 38.5 56.45 39.27 C56.2 40.25 55.95 41.24 55.69 42.25 C55.44 43.22 55.2 44.2 54.95 45.2 C53.99 48.02 53.01 49.83 51 52 C50.34 52 49.68 52 49 52 C48.67 52.99 48.34 53.98 48 55 C43.71 58.17 40.83 59.17 35.5 59.38 C31.34 59.59 29.39 60.05 26.44 63 C23.03 66.39 20.17 66.96 15.43 67.18 C11.74 66.9 9.27 65.73 6 64 C3.15 62.7 3.15 62.7 0.98 63.78 C0.25 64.16 -0.49 64.54 -1.25 64.94 C-5.4 66.87 -8.36 67.6 -13 67 C-15.36 66.06 -17.7 65.07 -20 64 C-24.15 62.55 -25.97 63.39 -29.86 65.22 C-37.89 68.15 -45.31 67.17 -53 64 C-55.67 63.04 -55.67 63.04 -58 63 C-58.91 63.71 -58.91 63.71 -59.83 64.44 C-63.5 67.07 -67.59 67.03 -72 67 C-75.62 66.06 -75.62 66.06 -78 65 C-78 64.34 -78 63.68 -78 63 C-79.32 62.34 -80.64 61.68 -82 61 C-82.69 52.14 -80.84 45.23 -77.69 37 C-77.28 35.88 -76.88 34.76 -76.46 33.61 C-73.08 24.48 -73.08 24.48 -70 22 C-67.81 21.31 -67.81 21.31 -66 21 C-64.44 22.44 -64.44 22.44 -63 25 C-62.83 31.84 -65.2 38.13 -67.56 44.44 C-68.21 46.21 -68.86 47.98 -69.5 49.75 C-69.79 50.52 -70.08 51.29 -70.37 52.08 C-71.1 53.98 -71.1 53.98 -71 56 C-69.26 56.87 -69.26 56.87 -67 57 C-61.32 53.79 -60.21 49.01 -58.38 43.12 C-53.03 26.59 -53.03 26.59 -47.25 22.88 C-43 21.22 -39.29 20.75 -34.81 21.62 C-30.91 23.53 -28.92 26.16 -27 30 C-26.62 35.02 -27 37.92 -30 42 C-31 43 -31 43 -33.38 43.31 C-36 43 -36 43 -37.81 41.38 C-39.29 38.43 -39.22 36.25 -39 33 C-40.97 33.23 -40.97 33.23 -43 34 C-44.17 36.65 -45.03 39.05 -45.81 41.81 C-46.04 42.54 -46.27 43.26 -46.51 44.01 C-47.61 47.71 -48.33 50.34 -47 54 C-44 56.72 -41.55 57.25 -37.62 57.06 C-32.42 56.22 -29.18 54.19 -26 50 C-22.87 44.15 -20 37.72 -20 31 C-21.4 29.35 -21.4 29.35 -23 28 C-23.19 25.31 -23.19 25.31 -23 23 C-19.63 21.5 -17.8 21 -14 21 C-13.77 19.74 -13.55 18.48 -13.31 17.19 C-12.05 11.5 -10.01 6 -7 1 C-4 0 -4 0 0 0 Z " fill="#000000" transform="translate(557,713)"/>
<path d="M0 0 C1 1 1 1 1.25 4.44 C1.21 9.58 -0.34 14.18 -2 19 C0.33 19.59 2.65 20.13 5 20.62 C8.3 22.14 9.77 23.63 11.37 26.9 C13.74 34.76 9.83 42.77 6.96 50 C5.67 53 5.67 53 7 56 C9.71 55.92 11.44 55.59 13.34 53.59 C15.42 50.72 17.06 47.87 18.62 44.69 C20 42 20 42 23 40 C23.99 40 24.98 40 26 40 C28.1 43.15 28.33 44.27 27.66 47.9 C25.63 54.32 21.77 60.56 15.99 64.16 C10.76 66.37 5.84 66.7 0.56 64.69 C-4.99 61.03 -4.99 61.03 -5.88 57.45 C-6.33 52.43 -4.79 48.38 -3 43.75 C-2.41 42.19 -1.82 40.62 -1.25 39.05 C-0.99 38.36 -0.72 37.68 -0.45 36.98 C0.08 34.66 -0.26 33.24 -1 31 C-4.91 30.53 -4.91 30.53 -6.6 32.6 C-8.27 35.46 -9.29 38.27 -10.34 41.41 C-10.76 42.65 -11.19 43.88 -11.62 45.16 C-12.28 47.11 -12.94 49.07 -13.59 51.03 C-14.22 52.93 -14.88 54.83 -15.53 56.72 C-15.91 57.85 -16.29 58.99 -16.68 60.15 C-18.08 63.17 -19.11 64.4 -22 66 C-24 65.75 -24 65.75 -26 65 C-29.35 63.88 -31.47 64.17 -34.88 65 C-42.69 66.54 -51.78 66.91 -59.06 63.25 C-60.52 62.63 -60.52 62.63 -62 62 C-64.42 63.27 -64.42 63.27 -67 65 C-71.9 66.16 -76.26 66.68 -80.88 64.44 C-83.82 62.65 -83.82 62.65 -86.25 63.75 C-86.83 64.16 -87.4 64.58 -88 65 C-92.1 66.37 -95.8 66.82 -99.94 65.28 C-102.78 63.81 -104.71 62.54 -106.25 59.71 C-107.13 56.52 -106.87 54.54 -106.19 51.31 C-106 50.36 -105.8 49.41 -105.61 48.43 C-105 46 -105 46 -104 44 C-103.93 42.63 -103.92 41.25 -103.94 39.88 C-103.96 38.6 -103.98 37.32 -104 36 C-105.32 36 -106.64 36 -108 36 C-108.18 36.68 -108.36 37.35 -108.55 38.05 C-108.8 38.94 -109.05 39.83 -109.31 40.75 C-109.68 42.07 -109.68 42.07 -110.05 43.42 C-111.02 46.06 -112.21 47.85 -114 50 C-116.31 49.67 -118.62 49.34 -121 49 C-120.62 44.74 -120.2 41.21 -118.44 37.31 C-116.47 32.58 -116.9 27.99 -117.19 22.95 C-116.97 19.59 -116.34 18.38 -114 16 C-111.62 14.94 -111.62 14.94 -109 15 C-106.35 17.16 -104.45 18.97 -103.06 22.12 C-101.46 24.96 -98.88 25.59 -96 27 C-93.08 29.09 -91.3 30.56 -90.55 34.16 C-90.27 40.23 -91.86 45.11 -94.22 50.65 C-95.3 53.11 -95.3 53.11 -94 56 C-90.12 53.99 -88.32 52.53 -86.62 48.5 C-86.22 47.54 -85.81 46.58 -85.38 45.59 C-84.3 42.79 -83.29 39.99 -82.3 37.16 C-82.01 36.31 -81.71 35.46 -81.4 34.58 C-80.81 32.88 -80.23 31.18 -79.67 29.46 C-78.37 25.69 -77.58 23.49 -74.47 20.88 C-72 20 -72 20 -69 21 C-66.85 24.22 -66.8 25.13 -67.45 28.8 C-68.65 33.62 -70.38 38.27 -72.06 42.94 C-72.44 44 -72.82 45.07 -73.21 46.17 C-74.13 48.78 -75.06 51.39 -76 54 C-74.19 56.24 -74.19 56.24 -71.62 56.19 C-67.87 54.49 -67.43 52 -65.96 48.29 C-64.38 44.54 -61.98 41.89 -59 39.19 C-56.72 36.7 -55.57 34.25 -54.14 31.23 C-51.55 26.15 -48.78 21.19 -44 18 C-41.5 17.62 -41.5 17.62 -39 18 C-36.43 20.31 -36.03 21.67 -35.69 25.12 C-36 28 -36 28 -38 30 C-37.75 35.33 -35.49 39.33 -32.94 43.88 C-32.56 44.56 -32.18 45.25 -31.79 45.96 C-30.87 47.64 -29.94 49.32 -29 51 C-25.58 48.27 -24.32 44.51 -22.75 40.56 C-22.45 39.82 -22.15 39.08 -21.84 38.32 C-17.77 28.13 -14.24 17.73 -10.78 7.32 C-10.27 5.83 -10.27 5.83 -9.75 4.31 C-9.48 3.48 -9.2 2.65 -8.92 1.8 C-6.96 -2.04 -3.52 -0.93 0 0 Z " fill="#000000" transform="translate(806,714)"/>
<path d="M0 0 C3.34 5.01 2.66 10.3 1.62 16.12 C0.41 21.93 -1.05 27.68 -2.5 33.44 C-3.15 36.03 -3.79 38.63 -4.43 41.22 C-4.82 42.83 -5.22 44.43 -5.63 46.04 C-6.49 49.49 -7 52.41 -7 56 C0.72 48.84 4.91 38.4 9.42 29.03 C11 26 11 26 12.58 23.91 C14.22 21.7 15 19.56 16 17 C17.26 14.6 18.54 12.23 19.88 9.88 C20.21 9.25 20.55 8.63 20.9 8 C22.84 4.58 24.52 1.92 28 0 C32.41 0.41 32.41 0.41 34 2 C34.79 8.57 32.54 12.5 29.25 18.06 C28.24 19.83 27.23 21.6 26.22 23.38 C25.69 24.29 25.16 25.21 24.62 26.16 C22.45 29.97 20.37 33.84 18.29 37.71 C4.55 63.23 4.55 63.23 -3 67 C-9.39 67.06 -14.15 66.23 -19 62 C-22.42 51.74 -17.5 38.36 -15.06 28.12 C-14.7 26.56 -14.33 24.99 -13.97 23.42 C-12.21 15.88 -10.45 8.36 -8 1 C-5.02 0.01 -3.1 -0.32 0 0 Z " fill="#000000" transform="translate(453,713)"/>
<path d="M0 0 C0.81 -0.01 1.62 -0.03 2.46 -0.04 C3.76 -0.04 3.76 -0.04 5.08 -0.05 C5.98 -0.05 6.88 -0.06 7.8 -0.07 C9.7 -0.08 11.59 -0.08 13.48 -0.08 C16.39 -0.08 19.29 -0.12 22.19 -0.16 C24.03 -0.16 25.87 -0.17 27.71 -0.17 C28.58 -0.18 29.45 -0.2 30.34 -0.21 C36.36 -0.17 36.36 -0.17 38.9 2.32 C39.21 2.97 39.51 3.62 39.83 4.29 C37.95 8.17 37.95 8.17 36.83 9.29 C34.13 9.36 31.46 9.38 28.77 9.35 C27.63 9.35 27.63 9.35 26.47 9.34 C24.59 9.33 22.71 9.31 20.83 9.29 C20.63 10.11 20.63 10.11 20.44 10.94 C18.01 20.44 14.69 29.62 11.41 38.84 C10.39 41.74 9.38 44.64 8.37 47.55 C7.71 49.4 7.05 51.25 6.4 53.1 C6.1 53.96 5.8 54.83 5.49 55.72 C3.93 60.04 2.67 63.48 -1.17 66.29 C-4.69 66.12 -6.2 65.27 -9.17 63.29 C-8.64 56.72 -6.9 51.23 -4.55 45.1 C-3.82 43.17 -3.1 41.23 -2.39 39.29 C-2.02 38.31 -1.65 37.32 -1.28 36.31 C0.52 31.41 2.22 26.48 3.89 21.54 C4.36 20.19 4.36 20.19 4.83 18.82 C5.11 17.99 5.39 17.16 5.68 16.31 C5.93 15.58 6.17 14.85 6.43 14.1 C7.05 12.2 7.05 12.2 5.83 10.29 C3.34 9.9 3.34 9.9 0.45 9.79 C-3.42 9.59 -4.86 9.5 -8.17 7.29 C-8.36 4.67 -8.36 4.67 -8.17 2.29 C-5.33 0.68 -3.26 0.03 0 0 Z " fill="#000000" transform="translate(655.170166015625,713.70947265625)"/>
<path d="M0 0 C3.68 0.08 4.74 0.13 7.69 2.5 C9.42 6.03 10.12 8.49 10.12 12.44 C8.38 15.88 8.38 15.88 6.12 18.44 C5.13 18.44 4.15 18.44 3.12 18.44 C3.56 18.99 3.99 19.55 4.44 20.12 C5.27 21.2 5.27 21.2 6.12 22.31 C6.68 23.03 7.24 23.75 7.81 24.49 C9.12 26.44 9.12 26.44 9.12 28.44 C5.91 27.06 4.08 25.51 1.88 22.81 C1.35 22.18 0.83 21.55 0.3 20.9 C-0.09 20.42 -0.48 19.93 -0.88 19.44 C-1.53 19.77 -2.19 20.1 -2.88 20.44 C-3.34 22.33 -3.34 22.33 -3.5 24.5 C-3.62 25.8 -3.75 27.1 -3.88 28.44 C-4.87 27.78 -5.85 27.12 -6.88 26.44 C-7.25 24.04 -7.25 24.04 -7.24 21.06 C-7.24 20 -7.24 18.93 -7.24 17.83 C-7.22 16.71 -7.2 15.59 -7.19 14.44 C-7.19 13.32 -7.19 12.2 -7.2 11.05 C-7.13 0.18 -7.13 0.18 0 0 Z " fill="#F2F2F2" transform="translate(245.875,828.5625)"/>
<path d="M0 0 C3.68 0.08 4.74 0.13 7.69 2.5 C9.39 5.99 10.06 8.55 10.12 12.44 C8.94 15.31 8.94 15.31 7.12 17.44 C5.01 18.07 5.01 18.07 3.12 18.44 C3.56 18.99 3.99 19.55 4.44 20.12 C5.27 21.2 5.27 21.2 6.12 22.31 C6.68 23.03 7.24 23.75 7.81 24.49 C9.12 26.44 9.12 26.44 9.12 28.44 C5.94 27.07 4.15 25.58 2 22.88 C-0.08 20.23 -0.08 20.23 -2.88 18.44 C-2.88 21.41 -2.88 24.38 -2.88 27.44 C-3.87 27.44 -4.86 27.44 -5.88 27.44 C-7.27 22.6 -7.06 17.81 -7.06 12.81 C-7.07 11.85 -7.09 10.88 -7.1 9.88 C-7.1 8.96 -7.1 8.04 -7.11 7.09 C-7.11 6.24 -7.11 5.4 -7.12 4.53 C-6.61 0.12 -3.79 0.1 0 0 Z " fill="#F3F3F3" transform="translate(544.875,828.5625)"/>
<path d="M0 0 C0.99 0.33 1.98 0.66 3 1 C4.14 3.67 5.11 6.25 6 9 C6.26 9.77 6.52 10.54 6.79 11.34 C7.54 13.55 8.27 15.78 9 18 C9.35 19.03 9.7 20.07 10.05 21.13 C10.71 23.08 11.36 25.04 12 27 C8.21 25.48 8.21 25.48 7.1 22.92 C6.74 22.29 6.37 21.65 6 21 C3.35 20.3 3.35 20.3 0.38 20.25 C-0.63 20.19 -1.63 20.14 -2.66 20.08 C-3.82 20.04 -3.82 20.04 -5 20 C-5.33 21.98 -5.66 23.96 -6 26 C-6.99 26 -7.98 26 -9 26 C-9 21.82 -7.48 18.92 -5.56 15.25 C-3.65 11.27 -2.33 7.2 -1 3 C-0.67 2.01 -0.34 1.02 0 0 Z " fill="#F1F0EF" transform="translate(442,830)"/>
<path d="M0 0 C0.66 0 1.32 0 2 0 C5.45 8.9 8.75 17.7 11 27 C9 25 7 23 5 21 C3.32 20.77 1.63 20.59 -0.06 20.44 C-0.98 20.35 -1.9 20.27 -2.85 20.18 C-3.91 20.09 -3.91 20.09 -5 20 C-5.29 20.97 -5.58 21.94 -5.88 22.94 C-7 26 -7 26 -9 27 C-9.48 21.69 -7.41 17.7 -5 13.07 C-3.94 10.88 -3.18 8.7 -2.44 6.38 C-1.72 4.15 -1.05 2.09 0 0 Z " fill="#F2F2F1" transform="translate(596,830)"/>
<path d="M0 0 C1.31 1.75 1.31 1.75 2 4 C1.5 6.62 1.5 6.62 0 9 C-3.12 10.31 -3.12 10.31 -6 11 C-6.2 12.42 -6.38 13.83 -6.56 15.25 C-6.67 16.04 -6.77 16.83 -6.88 17.64 C-7 20.01 -6.57 21.72 -6 24 C-7.12 25.81 -7.12 25.81 -9 27 C-11.69 26.69 -11.69 26.69 -14 26 C-15.75 20.89 -14.08 16.84 -12.44 11.94 C-12.2 11.14 -11.96 10.33 -11.71 9.51 C-10.43 5.63 -9.35 2.81 -5.97 0.38 C-3 -1 -3 -1 0 0 Z " fill="#F3F3F3" transform="translate(583,744)"/>
<path d="M0 0 C0.66 0 1.32 0 2 0 C2.96 1.73 3.92 3.46 4.88 5.19 C5.68 6.63 5.68 6.63 6.49 8.11 C8 11 8 11 9.01 13.8 C9.34 14.53 9.66 15.25 10 16 C10.99 16.33 11.98 16.66 13 17 C13.33 11.72 13.66 6.44 14 1 C14.99 1.33 15.98 1.66 17 2 C17 11.24 17 20.48 17 30 C12.5 25.5 12.5 25.5 10.68 22.43 C10.29 21.78 9.9 21.13 9.5 20.46 C9.11 19.79 8.72 19.13 8.31 18.44 C7.91 17.77 7.51 17.09 7.09 16.4 C5.45 13.63 4.02 11.06 3 8 C2.67 14.6 2.34 21.2 2 28 C0 26 0 26 -0.23 23.39 C-0.22 22.31 -0.21 21.23 -0.2 20.12 C-0.19 18.95 -0.18 17.78 -0.18 16.58 C-0.16 15.36 -0.14 14.14 -0.12 12.88 C-0.12 11.64 -0.11 10.41 -0.1 9.14 C-0.07 6.1 -0.04 3.05 0 0 Z " fill="#F2F0EE" transform="translate(640,829)"/>
<path d="M0 0 C2.12 -0.05 4.25 -0.09 6.38 -0.12 C7.56 -0.15 8.74 -0.17 9.96 -0.2 C13 0 13 0 15 2 C9.06 2.5 9.06 2.5 3 3 C3.33 6.3 3.66 9.6 4 13 C5.44 12.96 6.89 12.92 8.38 12.88 C10.84 12.8 10.84 12.8 13 13 C13.66 13.66 14.32 14.32 15 15 C14 16 14 16 11.5 16.1 C10.49 16.09 9.48 16.07 8.44 16.06 C7.43 16.05 6.41 16.04 5.37 16.04 C4.59 16.02 3.81 16.01 3 16 C3.33 18.64 3.66 21.28 4 24 C4.94 24.09 4.94 24.09 5.9 24.18 C6.72 24.27 7.53 24.35 8.38 24.44 C9.59 24.56 9.59 24.56 10.84 24.68 C13 25 13 25 15 26 C15 26.66 15 27.32 15 28 C10.38 28 5.76 28 1 28 C-0.36 25.29 -0.11 23.15 -0.1 20.12 C-0.09 18.95 -0.09 17.78 -0.09 16.58 C-0.08 15.36 -0.07 14.14 -0.06 12.88 C-0.06 11.64 -0.05 10.41 -0.05 9.14 C-0.04 6.1 -0.02 3.05 0 0 Z " fill="#F3F3F3" transform="translate(289,829)"/>
<path d="M0 0 C2 2 2 2 3 4 C2.67 4.66 2.34 5.32 2 6 C1.46 5.67 0.93 5.34 0.38 5 C-2.54 3.77 -4.87 3.86 -8 4 C-8.33 5.65 -8.66 7.3 -9 9 C-8.16 9.4 -7.31 9.8 -6.45 10.21 C-4.8 11 -4.8 11 -3.12 11.81 C-2.03 12.33 -0.94 12.86 0.18 13.39 C3 15 3 15 5 18 C4.94 21.5 4.94 21.5 4 25 C1.16 27.59 -0.69 27.97 -4.5 28.38 C-8.17 27.98 -10.05 27.15 -13 25 C-12.67 23.68 -12.34 22.36 -12 21 C-11.67 21.66 -11.34 22.32 -11 23 C-8.76 23.81 -8.76 23.81 -6.12 24.31 C-5.24 24.51 -4.36 24.72 -3.45 24.93 C-0.93 25.27 -0.93 25.27 0.82 23.54 C1.21 23.03 1.6 22.52 2 22 C0.31 17.94 -1.59 16.5 -5.5 14.81 C-6.27 14.51 -7.05 14.21 -7.84 13.89 C-10 13 -10 13 -13 11 C-13.71 7.02 -13.32 5.46 -11 2.12 C-6.87 -0.8 -4.98 -0.72 0 0 Z " fill="#F1F1F1" transform="translate(351,829)"/>
<path d="M0 0 C0.66 0.33 1.32 0.66 2 1 C2.02 1.83 2.02 1.83 2.04 2.68 C2.12 5.2 2.22 7.73 2.31 10.25 C2.34 11.12 2.36 12 2.38 12.89 C2.53 16.38 2.75 19.34 3.98 22.61 C6.83 24.85 6.83 24.85 15 24 C15.33 16.08 15.66 8.16 16 0 C19 2 19 2 19.39 3.89 C19.39 4.65 19.39 5.4 19.4 6.18 C19.4 7.42 19.4 7.42 19.41 8.69 C19.4 9.55 19.39 10.42 19.38 11.31 C19.39 12.17 19.4 13.02 19.41 13.9 C19.39 18.75 19.15 22.07 16 26 C13.35 28.08 11.99 28 8.56 27.88 C4.68 26.92 2.8 25.8 0 23 C-0.91 20.27 -1.13 18.65 -1.13 15.84 C-1.13 15.05 -1.14 14.25 -1.14 13.44 C-1.13 12.61 -1.13 11.79 -1.12 10.94 C-1.13 10.11 -1.13 9.28 -1.14 8.43 C-1.14 7.64 -1.13 6.84 -1.13 6.03 C-1.13 5.3 -1.13 4.58 -1.13 3.83 C-1 2 -1 2 0 0 Z " fill="#F3F3F3" transform="translate(486,829)"/>
<path d="M0 0 C7.34 -0.36 7.34 -0.36 9.94 1.06 C11.56 4.01 11.82 6.67 12 10 C11.01 11.49 11.01 11.49 10 13 C8.52 12.86 7.04 12.71 5.56 12.56 C4.74 12.48 3.92 12.4 3.07 12.32 C1 12 1 12 0 11 C-0.07 9.15 -0.08 7.29 -0.06 5.44 C-0.05 4.43 -0.04 3.41 -0.04 2.37 C-0.02 1.59 -0.01 0.81 0 0 Z " fill="#000000" transform="translate(541,832)"/>
<path d="M0 0 C7.34 -0.36 7.34 -0.36 9.94 1.06 C11.57 4.05 11.88 6.62 12 10 C11.06 12 11.06 12 9 13 C1.94 12.94 1.94 12.94 0 11 C-0.07 9.15 -0.08 7.29 -0.06 5.44 C-0.05 4.43 -0.04 3.41 -0.04 2.37 C-0.02 1.59 -0.01 0.81 0 0 Z " fill="#010101" transform="translate(242,832)"/>
<path d="M0 0 C2.16 3.23 2.47 4.25 2 8 C0.81 9.81 0.81 9.81 -1 11 C-4.22 11.5 -5.56 11.29 -8.31 9.5 C-8.87 9 -9.43 8.51 -10 8 C-9.75 4.62 -9.75 4.62 -9 1 C-6.05 -1.53 -3.57 -1.22 0 0 Z " fill="#000000" transform="translate(500,715)"/>
<path d="M0 0 C2.44 0.81 2.44 0.81 4.44 3.81 C4.69 6.88 4.69 6.88 4.44 9.81 C2.44 11.81 2.44 11.81 0.12 12.25 C-3.65 11.63 -5.1 9.63 -7.56 6.81 C-6.13 2.61 -5.04 -0.37 0 0 Z " fill="#000000" transform="translate(741.5625,714.1875)"/>
<path d="M0 0 C2.1 -0.05 4.21 -0.09 6.31 -0.12 C8.07 -0.16 8.07 -0.16 9.86 -0.2 C13 0 13 0 16 2 C14.02 2.66 12.04 3.32 10 4 C9.67 11.92 9.34 19.84 9 28 C8.01 27.34 7.02 26.68 6 26 C5.57 23.66 5.57 23.66 5.49 20.77 C5.45 19.74 5.42 18.71 5.38 17.65 C5.36 16.57 5.34 15.49 5.31 14.38 C5.26 12.74 5.26 12.74 5.21 11.08 C5.13 8.39 5.06 5.69 5 3 C2.52 2.01 2.52 2.01 0 1 C0 0.67 0 0.34 0 0 Z " fill="#F3F3F3" transform="translate(689,829)"/>
<path d="M0 0 C2.12 -0.05 4.25 -0.09 6.38 -0.12 C7.56 -0.15 8.74 -0.17 9.96 -0.2 C13 0 13 0 15 2 C13.02 2.66 11.04 3.32 9 4 C9 11.59 9 19.18 9 27 C8.34 27.33 7.68 27.66 7 28 C5.77 25.54 5.79 23.74 5.68 20.99 C5.62 19.51 5.62 19.51 5.56 18 C5.52 16.97 5.48 15.94 5.44 14.88 C5.39 13.83 5.35 12.79 5.31 11.72 C5.2 9.15 5.1 6.57 5 4 C2.52 3.01 2.52 3.01 0 2 C0 1.34 0 0.68 0 0 Z " fill="#F3F3F3" transform="translate(387,829)"/>
<path d="M0 0 C3 2 3 2 3.62 4.28 C3.7 5.16 3.79 6.03 3.88 6.94 C3.98 7.81 4.08 8.69 4.18 9.59 C4 12 4 12 2.74 13.84 C1 15 1 15 -2.69 14.69 C-3.78 14.46 -4.87 14.23 -6 14 C-6 13.01 -6 12.02 -6 11 C-4.79 10.32 -4.79 10.32 -3.56 9.62 C-0.79 8.25 -0.79 8.25 -0.19 5.5 C0.04 2.92 0.04 2.92 0 0 Z " fill="#F2F0EE" transform="translate(759,756)"/>
<path d="M0 0 C0.66 0 1.32 0 2 0 C3.07 1.96 4.07 3.97 5 6 C4.67 6.66 4.34 7.32 4 8 C3.67 8 3.34 8 3 8 C2.67 14.6 2.34 21.2 2 28 C0 26 0 26 -0.23 23.39 C-0.22 22.31 -0.21 21.23 -0.2 20.12 C-0.19 18.95 -0.18 17.78 -0.18 16.58 C-0.16 15.36 -0.14 14.14 -0.12 12.88 C-0.12 11.64 -0.11 10.41 -0.1 9.14 C-0.07 6.1 -0.04 3.05 0 0 Z " fill="#F3F3F3" transform="translate(640,829)"/>
<path d="M0 0 C2.45 3.67 4 6.55 4 11 C1.69 11 -0.62 11 -3 11 C-4 8 -4 8 -3.22 5.96 C-2.84 5.25 -2.46 4.54 -2.06 3.81 C-1.68 3.1 -1.3 2.38 -0.91 1.64 C-0.61 1.1 -0.31 0.56 0 0 Z " fill="#030202" transform="translate(443,836)"/>
<path d="M0 0 C0.33 0 0.66 0 1 0 C2.14 4.27 3 7.56 3 12 C1.02 12 -0.96 12 -3 12 C-4.21 8.36 -3.67 7.67 -2.06 4.31 C-1.49 3.1 -1.49 3.1 -0.91 1.86 C-0.61 1.25 -0.31 0.63 0 0 Z " fill="#050403" transform="translate(597,835)"/>
<path d="M0 0 C0.66 0 1.32 0 2 0 C2.69 2.81 2.69 2.81 3 6 C1.75 7.69 1.75 7.69 0 9 C-0.56 9.56 -1.11 10.11 -1.69 10.69 C-2.12 11.12 -2.55 11.55 -3 12 C-3 8.45 -2.76 6.9 -1.5 3.75 C-1.22 3.04 -0.94 2.34 -0.66 1.61 C-0.33 0.81 -0.33 0.81 0 0 Z " fill="#F3F3F3" transform="translate(596,830)"/>
</svg>
