<?xml version="1.0" encoding="UTF-8"?>
<!-- Generator: visioncortex VTracer 0.6.3 -->
<svg version="1.1" xmlns="http://www.w3.org/2000/svg" width="1280" height="1280">
<path d="M0 0 C422.4 0 844.8 0 1280 0 C1280 422.4 1280 844.8 1280 1280 C857.6 1280 435.2 1280 0 1280 C0 857.6 0 435.2 0 0 Z " fill="#F2F2F2" transform="translate(0,0)"/>
<path d="M0 0 C1.29 0 2.59 0 3.92 0 C4.64 -0 5.36 -0 6.1 -0.01 C8.53 -0.01 10.95 -0 13.38 0.01 C15.11 0 16.84 0 18.57 0 C23.29 -0 28 0 32.72 0.01 C37.64 0.02 42.57 0.02 47.49 0.02 C55.76 0.02 64.03 0.03 72.3 0.04 C81.87 0.06 91.45 0.06 101.02 0.06 C110.22 0.06 119.41 0.07 128.61 0.08 C132.53 0.08 136.45 0.08 140.37 0.08 C144.98 0.08 149.59 0.09 154.2 0.1 C155.9 0.1 157.6 0.1 159.3 0.1 C161.61 0.1 163.91 0.11 166.22 0.12 C167.51 0.12 168.81 0.12 170.14 0.12 C173.01 0.25 173.01 0.25 174.01 1.25 C174.05 2.92 174.05 4.58 174.01 6.25 C172.89 6.27 172.89 6.27 171.75 6.29 C147.86 6.01 147.86 6.01 126.01 14.25 C125.35 14.25 124.69 14.25 124.01 14.25 C123.72 14.97 123.43 15.69 123.13 16.44 C122.45 18.15 121.73 19.85 120.96 21.53 C114.54 39.86 127.26 64.43 133.12 81.51 C134.07 84.29 135.02 87.07 135.96 89.85 C141.69 106.67 147.49 123.47 153.38 140.23 C159.22 156.86 164.87 173.55 170.51 190.25 C176.51 208.03 182.55 225.79 188.76 243.5 C204.13 287.37 219.48 331.24 231.24 376.24 C231.42 376.9 231.59 377.55 231.77 378.23 C232.23 379.98 232.69 381.74 233.15 383.5 C233.92 386.42 233.92 386.42 236.01 389.25 C236.11 388.3 236.22 387.34 236.33 386.36 C237.02 381.56 238.46 377.03 239.9 372.41 C240.2 371.43 240.5 370.46 240.81 369.46 C241.81 366.22 242.81 362.99 243.82 359.75 C244.54 357.43 245.26 355.11 245.98 352.78 C254.4 325.62 263.03 298.52 271.68 271.43 C273.02 267.21 274.36 263 275.71 258.79 C279.38 247.27 283.05 235.75 286.72 224.23 C291.26 210 295.8 195.77 300.33 181.54 C300.55 180.85 300.76 180.17 300.99 179.47 C303.38 171.96 305.76 164.45 308.15 156.95 C309.01 154.24 309.87 151.53 310.73 148.82 C311.05 147.81 311.05 147.81 311.38 146.79 C314.35 137.43 317.34 128.08 320.33 118.74 C322.01 113.48 323.68 108.22 325.36 102.96 C326.5 99.39 327.64 95.83 328.78 92.26 C332.83 79.64 336.86 67.03 340.54 54.3 C340.78 53.47 341.03 52.64 341.27 51.79 C344.24 41.32 346.52 29.22 341.01 19.25 C337.39 13.05 332.94 11.04 326.2 8.98 C318.81 7.29 311.49 7.06 303.95 6.93 C302.91 6.91 301.88 6.89 300.82 6.87 C297.55 6.8 294.28 6.75 291.01 6.69 C288.78 6.64 286.55 6.6 284.32 6.56 C278.89 6.45 273.45 6.35 268.01 6.25 C267.38 4.37 267.38 4.37 267.01 2.25 C269.01 0.25 269.01 0.25 271.55 0 C272.63 0 273.71 0 274.82 0 C276.06 -0 277.3 -0.01 278.57 -0.01 C279.95 -0.01 281.33 0 282.71 0.01 C284.16 0 285.61 0 287.05 0 C290.99 -0 294.93 0 298.86 0.01 C302.97 0.02 307.08 0.02 311.2 0.02 C318.1 0.02 325 0.03 331.91 0.04 C339.9 0.06 347.9 0.06 355.89 0.06 C363.57 0.06 371.24 0.07 378.92 0.08 C382.19 0.08 385.47 0.08 388.74 0.08 C392.59 0.08 396.44 0.09 400.29 0.1 C401.71 0.1 403.12 0.1 404.54 0.1 C406.47 0.1 408.39 0.11 410.32 0.12 C411.4 0.12 412.48 0.12 413.59 0.12 C416.01 0.25 416.01 0.25 417.01 1.25 C417.05 2.92 417.05 4.58 417.01 6.25 C416.31 6.26 415.62 6.28 414.9 6.29 C411.69 6.37 408.47 6.46 405.26 6.56 C404.17 6.58 403.07 6.61 401.95 6.63 C389.47 7.04 376.51 9.26 367.05 18.08 C358.01 28.79 352.94 43.23 348.76 56.37 C348.26 57.89 347.77 59.41 347.27 60.93 C345.83 65.35 344.41 69.77 342.99 74.2 C341.56 78.64 340.12 83.09 338.68 87.53 C334.43 100.67 330.19 113.82 325.96 126.97 C321.75 140.06 317.53 153.14 313.31 166.23 C312.27 169.44 311.24 172.64 310.2 175.85 C304 195.09 297.79 214.33 291.57 233.56 C291.24 234.57 291.24 234.57 290.91 235.6 C286.5 249.25 282.09 262.89 277.68 276.54 C275.25 284.07 272.82 291.6 270.38 299.12 C270.06 300.12 270.06 300.12 269.73 301.14 C260.14 330.84 250.57 360.54 241.01 390.25 C231.67 390.32 222.34 390.37 213 390.4 C208.67 390.42 204.33 390.44 200 390.48 C195.81 390.51 191.63 390.53 187.45 390.53 C185.85 390.54 184.26 390.55 182.66 390.57 C180.43 390.59 178.19 390.59 175.96 390.59 C174.69 390.6 173.41 390.6 172.1 390.61 C169.01 390.25 169.01 390.25 167.2 389.06 C165.69 386.77 164.86 384.57 163.98 381.98 C163.61 380.89 163.23 379.8 162.85 378.68 C162.45 377.5 162.06 376.31 161.65 375.09 C161 373.2 160.36 371.3 159.71 369.41 C159.03 367.39 158.35 365.38 157.67 363.36 C155.54 357.04 153.38 350.73 151.22 344.42 C150.5 342.31 149.78 340.2 149.06 338.08 C145.25 326.91 141.33 315.79 137.32 304.69 C131.81 289.37 126.44 274.01 121.13 258.62 C115.33 241.8 109.47 225.01 103.51 208.25 C97.55 191.49 91.68 174.69 85.88 157.87 C80.22 141.46 74.49 125.08 68.61 108.75 C64.76 98.06 60.99 87.34 57.32 76.58 C56.92 75.41 56.52 74.24 56.11 73.03 C54.15 67.3 52.19 61.57 50.26 55.83 C42.67 31.82 42.67 31.82 26.88 12.94 C17 8.14 6.89 6.58 -3.99 6.25 C-4.62 4.37 -4.62 4.37 -4.99 2.25 C-2.99 0.25 -2.99 0.25 0 0 Z " fill="#D38B40" transform="translate(259.9919595718384,294.7511110305786)"/>
<path d="M0 0 C1.08 0 2.15 0 3.26 0 C5.12 -0.01 5.12 -0.01 7.02 -0.01 C8.41 -0.01 9.8 -0 11.19 0 C12.65 0 14.12 -0 15.58 -0.01 C19.62 -0.01 23.67 -0.01 27.71 0 C32.06 0.01 36.41 0 40.76 0 C49.3 -0 57.83 0 66.36 0.01 C76.29 0.02 86.21 0.02 96.14 0.02 C113.84 0.02 131.54 0.03 149.24 0.04 C166.44 0.06 183.64 0.06 200.84 0.06 C201.9 0.06 202.96 0.06 204.05 0.06 C205.63 0.06 205.63 0.06 207.25 0.06 C226.8 0.06 246.36 0.07 265.91 0.08 C272.83 0.08 279.76 0.08 286.69 0.08 C295.12 0.08 303.56 0.09 311.99 0.1 C316.3 0.1 320.61 0.1 324.92 0.1 C328.85 0.1 332.79 0.11 336.73 0.11 C338.16 0.11 339.59 0.12 341.02 0.11 C342.95 0.11 344.88 0.12 346.81 0.12 C347.89 0.12 348.97 0.12 350.08 0.12 C352.48 0.25 352.48 0.25 353.48 1.25 C354 6.25 354.16 11.29 354.41 16.31 C354.46 17.12 354.5 17.92 354.54 18.75 C356.13 49.89 356.69 81.08 357.48 112.25 C355.1 112.44 355.1 112.44 352.48 112.25 C350.17 108.79 350.16 107.2 349.98 103.1 C349.89 101.23 349.89 101.23 349.79 99.33 C349.76 98.68 349.73 98.02 349.7 97.34 C348.45 71.64 344.67 44.1 326.25 24.57 C314.27 14.54 297.66 10.15 282.48 8.25 C281.82 8.17 281.16 8.08 280.48 8 C273.12 7.16 265.81 7.1 258.41 7.12 C257.09 7.12 255.78 7.11 254.42 7.11 C251.66 7.11 248.9 7.11 246.14 7.12 C242.6 7.12 239.05 7.12 235.51 7.12 C232.12 7.11 228.73 7.11 225.35 7.12 C224.07 7.11 222.8 7.11 221.48 7.11 C219.73 7.12 219.73 7.12 217.94 7.12 C216.39 7.12 216.39 7.12 214.81 7.12 C212.52 6.99 212.52 6.99 211.48 8.25 C211.37 10.7 211.32 13.13 211.32 15.58 C211.31 16.36 211.31 17.14 211.3 17.94 C211.29 20.56 211.28 23.18 211.27 25.8 C211.26 27.68 211.25 29.55 211.24 31.42 C211.21 36.52 211.19 41.62 211.17 46.72 C211.15 52.04 211.12 57.36 211.1 62.68 C211.05 72.77 211 82.86 210.96 92.94 C210.91 104.42 210.85 115.9 210.8 127.38 C210.69 151.01 210.58 174.63 210.48 198.25 C201.25 198.27 192.03 198.29 182.81 198.3 C178.53 198.31 174.24 198.31 169.96 198.32 C165.83 198.34 161.7 198.34 157.57 198.34 C155.99 198.35 154.41 198.35 152.84 198.36 C150.63 198.36 148.43 198.36 146.22 198.36 C144.34 198.37 144.34 198.37 142.41 198.37 C139.48 198.25 139.48 198.25 137.48 197.25 C137.15 134.55 136.82 71.85 136.48 7.25 C94.36 5.38 94.36 5.38 51.23 11.44 C50.49 11.65 49.76 11.87 49 12.09 C33.9 16.71 21.24 24.32 13.07 38.19 C2.42 58.67 0.6 80.28 -1.2 102.92 C-1.51 106.06 -1.96 109.14 -2.52 112.25 C-4.19 112.29 -5.86 112.29 -7.52 112.25 C-8.52 111.25 -8.52 111.25 -8.64 108.29 C-8.6 97.9 -8.31 87.53 -7.9 77.15 C-7.84 75.46 -7.77 73.77 -7.71 72.08 C-7.57 68.57 -7.44 65.05 -7.3 61.54 C-7.12 57.08 -6.95 52.62 -6.78 48.16 C-6.65 44.68 -6.51 41.2 -6.37 37.72 C-6.31 36.08 -6.25 34.43 -6.18 32.79 C-5.99 27.61 -5.77 22.43 -5.52 17.25 C-5.49 16.52 -5.46 15.8 -5.43 15.05 C-5.33 12.95 -5.22 10.85 -5.1 8.75 C-5.04 7.54 -4.98 6.34 -4.91 5.09 C-4.41 1.43 -3.74 0.37 0 0 Z " fill="#D38B40" transform="translate(620.5235167145729,486.7504523396492)"/>
<path d="M0 0 C1.85 0 1.85 0 3.75 0 C4.77 0 4.77 0 5.81 -0 C8.07 -0.01 10.32 0.01 12.58 0.02 C14.15 0.02 15.71 0.02 17.27 0.02 C20.55 0.02 23.83 0.03 27.11 0.04 C31.32 0.06 35.54 0.06 39.75 0.06 C42.98 0.06 46.21 0.07 49.44 0.07 C50.99 0.08 52.55 0.08 54.1 0.08 C56.27 0.08 58.43 0.09 60.6 0.1 C62.45 0.11 62.45 0.11 64.34 0.11 C67.11 0.25 67.11 0.25 68.11 1.25 C68.21 3.7 68.25 6.13 68.25 8.59 C68.25 9.36 68.26 10.13 68.26 10.92 C68.27 12.6 68.27 14.28 68.28 15.96 C68.28 18.62 68.3 21.29 68.32 23.96 C68.37 31.54 68.42 39.13 68.43 46.71 C68.44 51.35 68.47 55.99 68.52 60.63 C68.53 62.38 68.53 64.14 68.53 65.9 C68.52 77.94 68.53 91.76 77.11 101.25 C87.73 110.37 99.07 112.82 112.8 112.93 C115.11 112.98 117.43 113.02 119.75 113.07 C121.26 113.09 121.26 113.09 122.8 113.11 C125.11 113.25 125.11 113.25 126.11 114.25 C126.15 115.91 126.15 117.58 126.11 119.25 C98.33 120.27 70.56 120.4 42.76 120.38 C36.77 120.37 30.78 120.38 24.8 120.38 C-4.45 120.4 -33.66 120.1 -62.89 119.25 C-63.22 118.26 -63.55 117.27 -63.89 116.25 C-62.12 113.98 -61.25 113.3 -58.35 112.88 C-57.36 112.88 -56.36 112.88 -55.33 112.88 C-54.22 112.86 -53.11 112.84 -51.97 112.82 C-49.66 112.81 -47.35 112.81 -45.04 112.81 C-32.53 112.6 -22.48 109.55 -13.4 100.81 C-6.36 93.15 -5.75 83.19 -5.72 73.23 C-5.71 72.46 -5.7 71.7 -5.7 70.9 C-5.68 69.25 -5.67 67.59 -5.66 65.94 C-5.64 63.32 -5.62 60.7 -5.6 58.08 C-5.53 50.64 -5.47 43.21 -5.41 35.77 C-5.38 31.21 -5.34 26.65 -5.29 22.09 C-5.28 20.35 -5.27 18.61 -5.26 16.88 C-5.25 14.46 -5.22 12.04 -5.19 9.62 C-5.19 8.89 -5.19 8.17 -5.19 7.43 C-5.09 0.44 -5.09 0.44 0 0 Z " fill="#D38B40" transform="translate(762.8912506103516,810.7527618408203)"/>
<path d="M0 0 C0.92 4.72 1.23 7.67 -1 12 C-0.34 12 0.32 12 1 12 C1.66 13.65 2.32 15.3 3 17 C1.36 17.22 1.36 17.22 -0.31 17.44 C-2.86 18.16 -3.75 18.55 -5.06 20.89 C-5.83 23.24 -6.44 25.59 -7 28 C-7.39 29.36 -7.78 30.71 -8.19 32.06 C-8.46 33.03 -8.72 34 -9 35 C-6.65 35.77 -6.65 35.77 -4 36 C-1.63 34.09 -0.4 32.1 0.83 29.35 C1.16 28.65 1.48 27.96 1.81 27.24 C2.48 25.8 3.13 24.35 3.78 22.89 C6.44 17.24 9.5 14.31 15.5 12.06 C19.01 11.97 21.05 13.16 24 15 C26.1 18.15 26.25 18.91 26.19 22.5 C26.18 23.27 26.17 24.05 26.17 24.84 C26 27 26 27 25 30 C26.93 30.04 26.93 30.04 29 29 C31.22 25.11 32.17 22.28 32.06 17.81 C31.97 12.41 31.97 12.41 34 10 C36.5 9.12 36.5 9.12 39 9 C41 11 41 11 41 14 C41.93 14.27 42.86 14.54 43.81 14.81 C46.89 15.96 48.06 16.47 50 19 C50.88 24.52 50.17 29.86 48 35 C48.99 35 49.98 35 51 35 C52.59 33.03 52.59 33.03 54 30.56 C56.68 26.11 56.68 26.11 60 25 C62.01 29.9 62.01 29.9 62 33 C59.49 37.27 56.09 40.27 52 43 C47.87 43.46 45.71 43.43 42.12 41.25 C39.09 38.03 39.09 38.03 39 35 C39.63 32.66 40.3 30.32 41 28 C41 26.68 41 25.36 41 24 C40.34 23.67 39.68 23.34 39 23 C38.92 23.87 38.92 23.87 38.84 24.76 C38.15 29.53 37.21 32.42 33.38 35.5 C30.49 37.42 28.26 38.32 24.81 38.62 C20.95 38.65 20.95 38.65 18.5 41.06 C14.82 43.91 12.59 43.44 8 43 C6.66 42.35 5.32 41.68 4 41 C1.35 41.32 -0.61 41.81 -3 43 C-10.47 43.36 -10.47 43.36 -14 41 C-16.3 41.2 -16.3 41.2 -18.75 41.88 C-25.66 43.42 -31.2 43.16 -37.98 41.24 C-40.32 40.74 -40.32 40.74 -43 43 C-47.52 43.44 -49.95 43.49 -54.06 41.56 C-56 39 -56 39 -56.12 35.12 C-54.94 28.27 -52.95 17.24 -47 13 C-46.01 13 -45.02 13 -44 13 C-42.26 16.48 -43.3 20.27 -44 24 C-44.5 25.45 -45.04 26.89 -45.62 28.31 C-46.99 31.98 -47.14 32.57 -46 36 C-44.51 35.5 -44.51 35.5 -43 35 C-41.84 32.56 -40.86 30.21 -39.94 27.69 C-35.38 15.63 -35.38 15.63 -30 13 C-27.56 12.06 -27.56 12.06 -25 12 C-21.75 13.56 -21.75 13.56 -19 16 C-17.8 19.54 -17.78 21.33 -18.94 24.88 C-19.29 25.58 -19.64 26.28 -20 27 C-21.98 26.67 -23.96 26.34 -26 26 C-26 24.02 -26 22.04 -26 20 C-28.37 22.13 -29.63 23.96 -30.75 26.94 C-31.01 27.61 -31.28 28.28 -31.55 28.96 C-32.08 31.36 -31.88 32.73 -31 35 C-28.15 36.43 -26.17 36.31 -23 36 C-18.07 33.42 -16.6 29.47 -14.6 24.54 C-13.91 21.62 -14.08 19.83 -15 17 C-15.66 16.67 -16.32 16.34 -17 16 C-15.42 14.26 -14.26 13.11 -12.05 12.21 C-9.29 10.58 -8.67 8.84 -7.38 5.94 C-4.7 0 -4.7 0 0 0 Z " fill="#D38B40" transform="translate(590,742)"/>
<path d="M0 0 C1.32 0.66 2.64 1.32 4 2 C3.67 5.63 3.34 9.26 3 13 C3.99 12.67 4.98 12.34 6 12 C9.88 15.75 9.88 15.75 11 18 C10.83 24.1 9.44 30.09 8 36 C9.91 35.84 9.91 35.84 12 35 C13.67 32.93 13.67 32.93 15.06 30.44 C16.54 27.93 16.54 27.93 18 26 C18.99 26 19.98 26 21 26 C22.12 29.92 22.29 31.47 20.31 35.12 C15.31 41.35 15.31 41.35 12 43 C7.84 43.4 5.39 43.18 1.56 41.44 C-1 39 -1 39 -1.56 35.75 C-1.02 32.12 -0.12 29.23 1.34 25.89 C2.22 23.7 2.22 23.7 2 20 C-1.19 20.67 -1.19 20.67 -2.25 23.41 C-2.64 24.43 -3.03 25.45 -3.44 26.5 C-3.87 27.58 -4.3 28.66 -4.74 29.77 C-5.52 31.77 -6.3 33.76 -7.07 35.76 C-7.4 36.56 -7.73 37.36 -8.06 38.19 C-8.48 39.26 -8.48 39.26 -8.91 40.36 C-10 42 -10 42 -11.93 42.8 C-14 43 -14 43 -17 42 C-17.7 42.14 -18.4 42.29 -19.12 42.44 C-25.7 43.72 -32.34 42.96 -38.93 42.12 C-41.06 41.82 -41.06 41.82 -43 43 C-46.43 43.13 -49.56 43.08 -52.94 42.44 C-55.73 42.04 -57.35 42.15 -60.06 42.62 C-64 43 -64 43 -66.94 42 C-69.94 39.09 -69.93 37.15 -70 33 C-69.51 29.95 -68.82 26.98 -68 24 C-68.66 24 -69.32 24 -70 24 C-70.24 24.57 -70.48 25.13 -70.73 25.71 C-71.07 26.45 -71.4 27.18 -71.75 27.94 C-72.07 28.67 -72.4 29.4 -72.73 30.15 C-74 32 -74 32 -76.14 32.75 C-76.75 32.84 -77.37 32.92 -78 33 C-79.19 31.5 -79.19 31.5 -80 29 C-79.28 27.04 -78.55 25.08 -77.72 23.16 C-76.94 20.83 -76.91 19.18 -77.06 16.75 C-77 13 -77 13 -75.25 10.44 C-73 9 -73 9 -70.75 9.25 C-70.17 9.5 -69.6 9.75 -69 10 C-68.94 10.93 -68.94 10.93 -68.88 11.88 C-68.59 12.58 -68.3 13.28 -68 14 C-66.01 14.69 -64.01 15.36 -62 16 C-59.14 18.48 -59.01 19.88 -58.69 23.69 C-58.85 28.25 -59.86 32.59 -61 37 C-57.75 34.83 -57.29 33.96 -55.81 30.5 C-55.42 29.61 -55.03 28.73 -54.63 27.81 C-54.24 26.88 -53.84 25.96 -53.44 25 C-52.65 23.16 -51.86 21.33 -51.06 19.5 C-50.71 18.69 -50.36 17.87 -50.01 17.03 C-49 15 -49 15 -47 13 C-46.01 13 -45.02 13 -44 13 C-40.98 19.05 -45.19 28.91 -47 35 C-46.01 35 -45.02 35 -44 35 C-42.44 33.14 -42.44 33.14 -41.06 30.75 C-38.94 27.39 -36.8 24.8 -34 22 C-33.2 20.61 -32.41 19.21 -31.62 17.81 C-29.43 14.13 -29.43 14.13 -25.69 13 C-24.8 13 -23.91 13 -23 13 C-21 16 -21 16 -21.56 19.38 C-22.07 23.6 -21.31 24.59 -19 28 C-19 29.32 -19 30.64 -19 32 C-17.68 32 -16.36 32 -15 32 C-14.68 31.2 -14.35 30.41 -14.02 29.58 C-12.82 26.62 -11.62 23.65 -10.41 20.68 C-9.89 19.4 -9.37 18.12 -8.85 16.84 C-8.1 14.99 -7.35 13.14 -6.6 11.3 C-5.93 9.63 -5.93 9.63 -5.24 7.93 C-2.4 1.2 -2.4 1.2 0 0 Z " fill="#D38B41" transform="translate(757,742)"/>
<path d="M0 0 C2.12 0.94 2.12 0.94 4 2 C4.3 8.5 3.22 13.94 1.5 20.19 C1.03 21.93 0.56 23.67 0.09 25.42 C-0.12 26.18 -0.33 26.94 -0.54 27.72 C-1.04 30.2 -1.08 32.48 -1 35 C4.02 27.74 8.35 20.2 12.59 12.46 C15.27 7.67 17.68 3.46 22 0 C24.81 0.19 24.81 0.19 27 1 C24.91 11.36 17.74 21.32 12.31 30.19 C11.47 31.57 11.47 31.57 10.62 32.98 C10.08 33.85 9.54 34.71 8.99 35.61 C8.51 36.38 8.03 37.16 7.54 37.95 C5.87 40.17 4.35 41.55 2 43 C-2.35 43.56 -4.48 43.28 -8.38 41.19 C-11 39 -11 39 -12 36 C-11.64 33.76 -11.18 31.53 -10.67 29.32 C-10.52 28.67 -10.37 28.02 -10.22 27.35 C-9.9 25.98 -9.58 24.6 -9.25 23.23 C-8.75 21.14 -8.28 19.05 -7.8 16.96 C-7.49 15.62 -7.17 14.28 -6.86 12.95 C-6.58 11.73 -6.29 10.52 -6 9.27 C-5.03 6.09 -3.92 3.71 -2 1 C-1.34 0.67 -0.68 0.34 0 0 Z " fill="#D38B40" transform="translate(517,742)"/>
<path d="M0 0 C1.05 -0.02 2.1 -0.03 3.18 -0.05 C4.19 -0.05 5.19 -0.05 6.23 -0.05 C7.14 -0.05 8.06 -0.06 9 -0.06 C11.38 0.31 11.38 0.31 13.26 1.59 C13.63 2.16 14 2.73 14.38 3.31 C14.04 4.63 13.72 5.95 13.38 7.31 C7.43 7.81 7.43 7.81 1.38 8.31 C0.96 9.72 0.55 11.12 0.12 12.57 C-1.66 18.51 -3.61 24.38 -5.62 30.25 C-5.97 31.28 -6.31 32.3 -6.66 33.36 C-7 34.34 -7.34 35.33 -7.69 36.34 C-7.99 37.22 -8.29 38.11 -8.6 39.02 C-9.66 41.39 -10.55 42.75 -12.62 44.31 C-15.31 44 -15.31 44 -17.62 43.31 C-18.83 39.11 -18.38 36.8 -16.75 32.79 C-16.34 31.75 -15.94 30.71 -15.51 29.63 C-15.08 28.56 -14.64 27.48 -14.19 26.38 C-13.33 24.24 -12.47 22.11 -11.63 19.97 C-11.25 19.03 -10.86 18.09 -10.47 17.12 C-9.55 14.05 -9.47 11.5 -9.62 8.31 C-12.26 7.65 -14.9 6.99 -17.62 6.31 C-17.29 4.99 -16.97 3.67 -16.62 2.31 C-11.41 -0.57 -5.79 -0.02 0 0 Z " fill="#D38B40" transform="translate(669.625,740.6875)"/>
<path d="M0 0 C3.29 0.09 4.82 0.19 7.69 1.88 C9.67 5.33 10.33 8.4 10.12 12.38 C8.94 15.31 8.94 15.31 7.12 17.38 C5.8 17.71 4.49 18.03 3.12 18.38 C5.11 21.01 7.09 23.65 9.12 26.38 C8.79 27.03 8.47 27.7 8.12 28.38 C5.34 26.29 3.11 24.36 0.94 21.62 C0.04 20.51 0.04 20.51 -0.88 19.38 C-1.53 19.38 -2.2 19.38 -2.88 19.38 C-3.21 22.01 -3.53 24.65 -3.88 27.38 C-4.87 27.04 -5.86 26.72 -6.88 26.38 C-6.93 22.42 -6.97 18.46 -7 14.5 C-7.02 13.37 -7.03 12.24 -7.05 11.08 C-7.06 10.01 -7.06 8.93 -7.07 7.82 C-7.08 6.83 -7.09 5.83 -7.1 4.81 C-6.67 0.15 -4.07 0.06 0 0 Z " fill="#D38B40" transform="translate(544.875,828.625)"/>
<path d="M0 0 C1.6 -0.04 3.21 -0.07 4.81 -0.09 C5.7 -0.11 6.59 -0.13 7.51 -0.15 C10 0 10 0 13.06 1.5 C15.69 4.89 16.3 7.75 16 12 C14.81 14.94 14.81 14.94 13 17 C11.68 17.33 10.36 17.66 9 18 C10.98 20.64 12.96 23.28 15 26 C14.67 26.66 14.34 27.32 14 28 C10.83 25.6 8.14 23.38 6 20 C6 19.34 6 18.68 6 18 C5.01 18 4.02 18 3 18 C3 20.64 3 23.28 3 26 C2.34 26.33 1.68 26.66 1 27 C-0.33 24.34 -0.11 22.31 -0.1 19.34 C-0.09 18.21 -0.09 17.09 -0.09 15.94 C-0.08 14.76 -0.07 13.59 -0.06 12.38 C-0.06 11.19 -0.05 10.01 -0.05 8.79 C-0.04 5.86 -0.02 2.93 0 0 Z " fill="#D38B40" transform="translate(240,829)"/>
<path d="M0 0 C0.66 0 1.32 0 2 0 C3.83 2.89 5.42 5.88 7.05 8.89 C9.19 12.57 9.19 12.57 14 17 C14 11.72 14 6.44 14 1 C14.99 1 15.98 1 17 1 C17 9.91 17 18.82 17 28 C14.32 24.65 11.81 21.38 9.38 17.88 C8.78 17.03 8.19 16.18 7.59 15.3 C4 10.09 4 10.09 4 7 C3.34 7 2.68 7 2 7 C2 13.6 2 20.2 2 27 C1.01 26.34 0.02 25.68 -1 25 C-1.36 22.59 -1.36 22.59 -1.33 19.59 C-1.32 18.52 -1.32 17.45 -1.31 16.34 C-1.29 15.22 -1.27 14.09 -1.25 12.94 C-1.24 11.81 -1.24 10.68 -1.23 9.52 C-1.15 1.15 -1.15 1.15 0 0 Z " fill="#D38B40" transform="translate(640,830)"/>
<path d="M0 0 C0.99 0 1.98 0 3 0 C3.13 0.73 3.26 1.46 3.39 2.21 C3.97 4.85 4.75 7.1 5.81 9.57 C6.17 10.41 6.52 11.24 6.88 12.1 C7.25 12.95 7.62 13.81 8 14.69 C8.37 15.55 8.74 16.42 9.12 17.31 C10.97 21.7 10.97 21.7 13 26 C12.01 26 11.02 26 10 26 C10 25.34 10 24.68 10 24 C9.34 24 8.68 24 8 24 C7.5 21.52 7.5 21.52 7 19 C3.37 19 -0.26 19 -4 19 C-4.99 20.98 -5.98 22.96 -7 25 C-7.66 24.67 -8.32 24.34 -9 24 C-8.61 23.11 -8.22 22.23 -7.81 21.31 C-3.23 10.88 -3.23 10.88 0 0 Z " fill="#D38B40" transform="translate(442,831)"/>
<path d="M0 0 C1.51 2.91 2.76 5.84 3.91 8.91 C4.26 9.84 4.61 10.77 4.97 11.72 C5.33 12.68 5.69 13.64 6.06 14.62 C6.78 16.53 7.5 18.44 8.22 20.35 C8.54 21.2 8.86 22.04 9.18 22.91 C9.97 25.01 9.97 25.01 11 27 C10.01 26.67 9.02 26.34 8 26 C8 25.34 8 24.68 8 24 C7.34 24 6.68 24 6 24 C5.34 22.68 4.68 21.36 4 20 C0.97 19.77 -1.97 19.64 -5 20 C-7.12 21.82 -7.12 21.82 -8 24 C-7.65 18.46 -7.07 14.72 -4 10 C-3.14 7.65 -2.38 5.28 -1.65 2.89 C-1 1 -1 1 0 0 Z " fill="#D38B40" transform="translate(597,830)"/>
<path d="M0 0 C1.3 0.01 1.3 0.01 2.63 0.02 C3.5 0.01 4.36 0.01 5.25 0 C7.86 0.28 9.51 0.95 11.76 2.27 C9.11 3.59 7.08 3.36 4.13 3.33 C3.13 3.32 2.13 3.31 1.09 3.3 C0.32 3.29 -0.45 3.28 -1.24 3.27 C-1.24 6.57 -1.24 9.87 -1.24 13.27 C0.2 13.25 1.65 13.22 3.13 13.2 C7.51 13.14 7.51 13.14 9.76 14.27 C9.76 14.93 9.76 15.59 9.76 16.27 C6.13 16.27 2.5 16.27 -1.24 16.27 C-1.24 19.24 -1.24 22.21 -1.24 25.27 C-0.54 25.25 0.16 25.24 0.88 25.23 C1.79 25.22 2.7 25.21 3.63 25.2 C4.54 25.19 5.44 25.18 6.38 25.17 C8.76 25.27 8.76 25.27 10.76 26.27 C10.76 26.93 10.76 27.59 10.76 28.27 C8.82 28.32 6.88 28.36 4.95 28.39 C3.87 28.41 2.79 28.44 1.68 28.46 C-1.24 28.27 -1.24 28.27 -4.24 26.27 C-4.61 23.87 -4.61 23.87 -4.61 20.89 C-4.6 19.82 -4.6 18.76 -4.6 17.66 C-4.59 16.54 -4.57 15.42 -4.55 14.27 C-4.56 13.15 -4.56 12.03 -4.56 10.88 C-4.5 0.53 -4.5 0.53 0 0 Z " fill="#D38B40" transform="translate(293.2421875,828.734375)"/>
<path d="M0 0 C0.04 0.84 0.04 0.84 0.08 1.7 C0.19 4.24 0.31 6.77 0.44 9.31 C0.48 10.19 0.52 11.07 0.56 11.98 C0.6 12.83 0.64 13.68 0.68 14.55 C0.74 15.72 0.74 15.72 0.79 16.92 C0.94 19.19 0.94 19.19 2 22 C4.03 22.84 4.03 22.84 6.44 23.25 C7.24 23.42 8.04 23.59 8.87 23.77 C11.05 24.2 11.05 24.2 13 23 C13 15.74 13 8.48 13 1 C13.99 0.67 14.98 0.34 16 0 C16.09 3.58 16.14 7.17 16.19 10.75 C16.21 11.77 16.24 12.78 16.26 13.83 C16.27 14.81 16.28 15.79 16.29 16.8 C16.31 17.7 16.32 18.6 16.34 19.53 C15.93 22.54 15.13 23.85 13 26 C8.54 27.08 6.3 27.59 2.12 25.69 C-1.42 22.87 -2.41 21.48 -3 17 C-3.07 14.22 -3.09 11.47 -3.06 8.69 C-3.06 7.95 -3.05 7.21 -3.05 6.44 C-3.04 4.63 -3.02 2.81 -3 1 C-1 0 -1 0 0 0 Z " fill="#D38B40" transform="translate(488,830)"/>
<path d="M0 0 C2.75 -0.25 2.75 -0.25 6 0 C8.38 2 8.38 2 10 4 C9.67 4.66 9.34 5.32 9 6 C8.01 5.34 7.02 4.68 6 4 C3.67 3.92 1.33 3.91 -1 4 C-1.66 5.98 -2.32 7.96 -3 10 C-2.32 10.17 -1.65 10.34 -0.95 10.52 C8.41 13.06 8.41 13.06 11 17 C12.02 20.27 12.34 22.09 11.12 25.31 C7.77 27.98 4.21 28.2 0 28 C-3.06 26.75 -3.06 26.75 -5 25 C-5 24.01 -5 23.02 -5 22 C-3.51 22.99 -3.51 22.99 -2 24 C0.21 24.49 0.21 24.49 2.56 24.69 C3.35 24.77 4.13 24.86 4.94 24.95 C7.07 25.16 7.07 25.16 9 24 C8.58 20.27 8.58 20.27 7 17 C4.52 15.63 2.11 14.76 -0.59 13.92 C-3.12 12.95 -4.36 12.14 -6 10 C-6.19 7.31 -6.19 7.31 -6 5 C-5.34 5 -4.68 5 -4 5 C-3.67 4.01 -3.34 3.02 -3 2 C-2.01 2 -1.02 2 0 2 C0 1.34 0 0.68 0 0 Z " fill="#D38B40" transform="translate(344,829)"/>
<path d="M0 0 C0.95 0.16 0.95 0.16 1.91 0.33 C4.21 3.77 4.45 6.27 4.91 10.33 C3.35 11.89 3.35 11.89 0.91 13.33 C-5.53 12.89 -5.53 12.89 -7.09 11.33 C-7.19 9.66 -7.22 8 -7.21 6.33 C-7.22 5.42 -7.22 4.51 -7.22 3.58 C-6.95 -1 -3.94 0.14 0 0 Z " fill="#F3F3F3" transform="translate(548.08984375,831.671875)"/>
<path d="M0 0 C6.05 -0.2 6.05 -0.2 8 0 C10.23 2.23 10.37 2.92 10.75 5.94 C10.9 6.97 10.9 6.97 11.05 8.03 C11 10 11 10 9 13 C6.03 12.67 3.06 12.34 0 12 C0 8.04 0 4.08 0 0 Z " fill="#F3F3F3" transform="translate(243,832)"/>
<path d="M0 0 C1.79 -0.03 3.58 -0.05 5.38 -0.06 C6.37 -0.07 7.37 -0.09 8.4 -0.1 C11 0 11 0 13 1 C13 1.66 13 2.32 13 3 C11.35 3 9.7 3 8 3 C8 10.92 8 18.84 8 27 C7.34 27 6.68 27 6 27 C4.75 24.5 4.89 22.79 4.9 19.99 C4.91 19.01 4.91 18.02 4.91 17 C4.92 15.97 4.93 14.94 4.94 13.88 C4.94 12.83 4.95 11.79 4.95 10.72 C4.96 8.15 4.98 5.57 5 3 C3.35 3 1.7 3 0 3 C0 2.01 0 1.02 0 0 Z " fill="#D38B40" transform="translate(388,829)"/>
<path d="M0 0 C1.32 0.66 2.64 1.32 4 2 C3.63 5.29 2.92 6.07 0.38 8.38 C-0.41 9.24 -1.19 10.11 -2 11 C-1.95 14.25 -1.95 14.25 -1 17 C-2.32 17.33 -3.64 17.66 -5 18 C-5 17.34 -5 16.68 -5 16 C-5.66 16 -6.32 16 -7 16 C-4.4 4.4 -4.4 4.4 0 0 Z " fill="#F3F3F3" transform="translate(605,761)"/>
<path d="M0 0 C1.92 -0.05 3.83 -0.09 5.75 -0.12 C7.35 -0.16 7.35 -0.16 8.98 -0.2 C11.92 -0 13.52 0.47 16 2 C14 3 14 3 8 3 C8 11.25 8 19.5 8 28 C6.05 24.09 5.77 23.1 6.02 19.02 C6.08 18.08 6.13 17.15 6.18 16.18 C6.24 15.22 6.31 14.25 6.38 13.25 C6.43 12.27 6.49 11.28 6.55 10.27 C6.69 7.85 6.84 5.42 7 3 C4.36 2.67 1.72 2.34 -1 2 C-0.67 1.34 -0.34 0.68 0 0 Z " fill="#D38B40" transform="translate(690,829)"/>
<path d="M0 0 C2.42 2.42 2.46 3.68 3 7 C3.19 7.93 3.37 8.86 3.56 9.81 C3.78 10.9 3.78 10.9 4 12 C1.36 12 -1.28 12 -4 12 C-3.72 10.56 -3.42 9.12 -3.12 7.69 C-2.96 6.89 -2.8 6.09 -2.63 5.26 C-2 3 -2 3 0 0 Z " fill="#F3F3F3" transform="translate(597,835)"/>
<path d="M0 0 C0.99 0.33 1.98 0.66 3 1 C4.31 4.17 5 6.56 5 10 C2.36 10 -0.28 10 -3 10 C-2.39 6.44 -1.42 3.32 0 0 Z " fill="#F3F3F3" transform="translate(442,837)"/>
<path d="M0 0 C2 3 2 3 1.62 5.19 C1.42 5.79 1.21 6.38 1 7 C-0.81 7.62 -0.81 7.62 -3 8 C-3.99 7.34 -4.98 6.68 -6 6 C-5.62 3.56 -5.62 3.56 -5 1 C-3 0 -3 0 0 0 Z " fill="#D38B40" transform="translate(551,742)"/>
<path d="M0 0 C2 3 2 3 1.62 5.19 C1.42 5.79 1.21 6.38 1 7 C-0.81 7.62 -0.81 7.62 -3 8 C-3.99 7.34 -4.98 6.68 -6 6 C-5.62 3.56 -5.62 3.56 -5 1 C-3 0 -3 0 0 0 Z " fill="#D38B40" transform="translate(718,742)"/>
</svg>
